<svg width="64" height="64" viewBox="0 0 64 64" fill="none" xmlns="http://www.w3.org/2000/svg">
<g clip-path="url(#clip0_419_1478)">
<mask id="mask0_419_1478" style="mask-type:luminance" maskUnits="userSpaceOnUse" x="0" y="0" width="64" height="64">
<path d="M64 0H0V64H64V0Z" fill="white"/>
</mask>
<g mask="url(#mask0_419_1478)">
<path d="M47.6334 57.1522C40.3526 78.9504 20.9324 85.6733 10.6645 58.6054C9.24803 54.8843 12.9398 53.5045 15.5233 51.8605C17.2921 50.7375 18.2242 49.7687 18.1141 48.7632C17.6003 44.0366 15.4058 30.8697 15.4058 30.8697L15.1856 30.444C15.1856 30.444 15.237 30.3265 15.0242 30.532C14.804 30.7522 14.2976 33.0421 12.3086 33.0421C10.5104 33.0421 8.69758 32.2421 7.83152 26.7082C7.50125 24.7045 7.67739 19.4495 9.90858 18.4953C10.826 18.1064 11.6701 17.9669 12.4921 18.4366C13.3214 18.9064 11.5379 16.822 20.7123 9.18893C26.6719 4.21278 36.0884 3.48617 39.8902 4.33021C43.6921 5.17425 47.4866 7.03113 49.1673 10.9724C51.2077 15.7431 47.2664 19.3614 48.1398 30.2385C47.9783 34.1724 48.1985 42.8036 37.3801 45.6953C35.3251 46.2458 35.9636 49.2476 39.0462 49.9816C43.9636 51.5229 47.6334 55.288 47.6334 57.1669" fill="white"/>
<path fill-rule="evenodd" clip-rule="evenodd" d="M47.6335 23.2806L47.6408 23.1779C47.9417 20.5063 48.2426 17.9155 49.6298 15.5889C50.1069 15.9118 50.0481 16.3228 49.9014 16.7045C48.4408 20.4623 48.5803 24.3668 48.7124 28.2714L48.7417 29.299C48.8958 34.1724 47.6775 38.6054 44.4335 42.3265C43.3032 43.6182 41.8059 44.5136 40.2867 45.2843C38.716 46.0916 38.3858 46.7595 38.8775 48.4843L38.9362 48.6751C39.039 48.9613 39.1417 49.2549 38.8628 49.5412C38.5325 49.8788 38.1656 49.7834 37.7766 49.6733L37.7325 49.6659C34.0936 48.647 30.6814 46.9459 27.6775 44.6531C27.2371 44.3302 26.8848 43.8971 26.5399 43.4714L26.5179 43.4421C26.3344 43.2219 26.2977 42.8696 26.5546 42.6788C26.7968 42.4953 26.9803 42.6421 27.1931 42.8109L27.2665 42.8769C28.8691 44.1773 30.8142 44.9854 32.8665 45.2035C33.85 45.3063 34.8188 45.2696 35.8023 45.2329C36.3454 45.2109 36.8885 45.1889 37.439 45.1962C38.1876 45.1962 38.8114 44.8512 39.3986 44.521L39.6041 44.4035C41.6445 43.2659 43.5894 41.9962 44.9032 39.9485C46.0848 38.1136 46.8041 36.1173 47.2225 34.0109C47.7509 31.3613 47.7069 28.6751 47.6628 25.9522C47.6408 25.0714 47.6261 24.176 47.6261 23.2806H47.6335ZM10.6867 17.7467C12.294 17.6219 13.1821 18.5687 13.9381 19.6769C14.834 21.031 15.3973 22.5776 15.5821 24.1907C15.6188 24.4623 15.6555 24.7485 15.494 25.0201C15.1637 25.0641 15.1344 24.7999 15.127 24.609C15.0903 23.0898 14.4151 21.7687 13.7399 20.4916C13.2555 19.5742 12.5509 18.6861 11.4353 18.4659C10.1729 18.2091 9.01328 19.3467 8.4408 20.8292C7.37658 23.5889 7.56007 26.3045 8.54356 28.976C8.96925 30.143 9.50502 31.332 10.5839 32.1467C11.6702 32.976 12.9839 32.8292 13.7839 31.7283L13.9307 31.5448C14.0775 31.354 14.2243 31.1705 14.2977 30.9577C14.4518 30.532 14.694 30.1357 15.127 30.1944C15.6261 30.2678 15.7142 30.8035 15.7656 31.2219C16.2209 35.0667 16.7592 38.9013 17.3803 42.7228L17.8133 45.5705C18.0041 46.8256 18.2243 48.6311 18.0775 49.3944C18.068 49.4479 18.0607 49.5017 18.0555 49.5558C18.0261 49.7613 18.0114 49.9228 17.7472 49.9595C17.3876 50.0182 17.2335 49.8127 17.1821 49.4898C17.0133 48.2421 16.9619 47.7577 16.8885 45.8494C16.8225 43.9999 16.4775 42.1797 16.1252 40.3522L15.7582 38.3705C15.3766 36.11 15.0023 33.8201 14.9656 31.2513L14.8188 31.4714C14.261 32.3008 13.8133 32.976 13.0206 33.2329C12.4322 33.4583 11.7874 33.491 11.1792 33.3261C10.5711 33.1612 10.0311 32.8073 9.63714 32.3155C8.60292 31.1474 7.8764 29.7397 7.52337 28.2201C6.90686 25.7246 6.79677 23.2953 7.58943 20.8366C7.97108 19.6549 9.32888 17.5558 10.6867 17.754V17.7467ZM13.2261 27.1045C13.5491 27.3393 13.8426 27.5448 14.1069 26.7081C14.0261 23.6109 13.028 21.6292 11.4793 21.5485C12.3014 22.6201 13.094 23.6623 13.1674 25.1081C12.862 24.9522 12.5941 24.7318 12.3821 24.4623C12.2353 24.3008 12.0885 24.1393 11.905 24.0219L11.6848 23.8457C11.3325 23.5815 10.9729 23.3026 10.3784 23.5155C10.6573 23.9412 11.039 24.2494 11.428 24.543C11.8683 24.8879 12.3087 25.2256 12.5729 25.754C11.7949 26.3191 11.4573 27.0531 11.861 27.9485C12.2133 28.7191 12.7344 29.3577 13.7619 29.4017C13.7179 28.9393 13.417 28.6017 13.116 28.2714C12.7491 27.8751 12.4041 27.4935 12.5656 26.9063C12.8004 26.7962 13.0206 26.9577 13.2261 27.1045Z" fill="black"/>
<path d="M77.5928 97.0569L-18.4438 97.1229C-18.4438 97.1229 -13.0934 76.5504 -11.6695 74.1871C-10.2383 71.8312 -4.50623 63.8826 -4.57229 62.5321C-4.63834 61.1816 -4.4622 56.3816 -3.49339 54.4881C-2.52458 52.5798 0.557985 49.989 1.76166 49.7908C2.96532 49.6073 7.02404 49.4238 9.55615 48.7853C12.0883 48.1541 14.4295 47.3688 17.0057 47.3688C17.424 47.3688 17.0204 48.2862 17.0204 48.2862C17.0204 48.2862 17.1525 57.2624 29.1158 57.8275C38.0332 58.2459 40.9837 49.1963 40.9837 49.1963C40.9837 49.1963 39.024 47.4495 39.6185 47.4055C46.635 46.8037 50.3121 48.3743 52.4406 48.7853C54.4075 49.167 56.0516 49.167 58.0185 50.5615C60.2718 52.1541 61.4314 55.7725 63.9562 61.3137C66.8406 67.6697 78.202 86.9504 77.5928 97.1009" fill="white"/>
<path fill-rule="evenodd" clip-rule="evenodd" d="M54.7156 97.2844C54.6569 96.0367 54.6349 94.789 54.6055 93.5487C54.5468 90.8257 54.4881 88.0954 54.1358 85.3652C53.8129 82.8698 53.4386 80.3743 53.0349 77.8863C52.3293 73.8073 51.5069 69.7493 50.5688 65.7175C50.2606 64.3303 49.7248 62.9725 49.1523 61.6587C48.734 60.7046 48.389 59.7211 48.0367 58.7376C47.6331 57.6147 47.2294 56.4918 46.7303 55.4055C46.6422 55.2147 46.5321 55.0386 46.422 54.8624C46.2019 54.5321 45.9817 54.1798 45.8716 53.6587C42.3853 60.5138 37.0349 64.0661 29.4899 64.1028C22.0624 64.1321 16.5725 60.712 12.5652 54.5395C11.934 55.0532 11.6477 55.7872 11.3909 56.4477L11.2881 56.6899C9.92297 60.0587 8.6459 63.4422 8.24223 67.1266C8.01471 69.2551 7.68443 71.3835 7.3615 73.4973L7.22939 74.334C6.72297 77.6514 6.27526 80.9909 6.0404 84.345C5.7248 88.6019 5.39453 92.8588 5.05691 97.2037C4.71196 97.2844 4.38902 97.2844 3.98535 97.2844C4.21227 95.4628 4.33967 93.6301 4.367 91.7945C4.48444 88.1468 4.90278 84.5285 5.32113 80.9175L5.65141 77.945C5.87159 75.8899 6.16517 73.8349 6.46609 71.7945C6.75966 69.7762 7.05324 67.7578 7.27343 65.7248C7.63306 62.4954 8.88077 59.4716 10.2092 56.5065L10.2679 56.3597C11.0312 54.6496 11.7945 52.9321 13.0202 51.4789C13.967 50.356 15.0386 49.3578 16.3083 48.6165C17.3285 48.0221 17.6587 48.1468 18.0037 49.2771C18.7083 51.589 19.934 53.5707 21.9156 54.9211C25.0569 57.0496 28.4477 58.0184 32.2863 56.8954C34.9652 56.1101 37.1743 54.7597 38.767 52.4771C39.3835 51.5964 39.9413 50.6422 40.1248 49.5413C39.6717 49.3913 39.2259 49.2199 38.789 49.0276V49.0202C38.5688 48.9175 38.2973 48.8 38.4147 48.4698C38.5028 48.2202 38.7083 48.0367 38.9872 48.0808C41.4165 48.411 43.7211 48.9395 45.3285 51.0973C46.8012 53.0982 47.9733 55.3038 48.8074 57.6441L49.3578 59.1413C50.2826 61.6147 51.2 64.0881 51.8826 66.6422C52.1468 67.6551 52.3523 68.6753 52.5505 69.7028L52.8147 71.0165L53.1964 72.756C53.4899 74.0918 53.7835 75.4202 53.9964 76.7707C54.1432 77.6954 54.2899 78.6202 54.4514 79.545C54.8918 82.1725 55.3468 84.8074 55.4642 87.4863C55.523 88.8074 55.611 90.1285 55.7138 91.4496C55.7945 92.5505 55.8753 93.6587 55.934 94.7743C55.9633 95.3762 55.9046 95.9854 55.8386 96.6092L55.7798 97.2404C55.4276 97.2844 55.0679 97.3065 54.7083 97.2918L54.7156 97.2844ZM41.1303 50.2753C40.5432 51.6331 39.9707 52.9909 38.9798 54.1211C36.4624 56.9909 33.2037 58.3046 29.4826 58.4147C26.9872 58.4881 24.5285 57.9743 22.3633 56.5798C20.2716 55.2294 18.4734 53.5927 17.5927 51.1487L17.5046 50.8698C17.3578 50.4441 17.211 50.0037 16.8734 49.6954C15.9046 49.9156 15.6477 50.5248 15.8019 51.3835L15.8679 51.8092C15.9046 52.1028 15.9413 52.3964 16.0441 52.6679C16.9615 55.2661 18.7597 57.1743 21.0569 58.5688C22.8624 59.6698 24.8294 60.389 26.9872 60.6606C31.4129 61.211 35.5376 60.6239 39.1927 57.8863C40.2769 57.1193 41.1866 56.1316 41.8621 54.9881C42.5376 53.8446 42.9635 52.5712 43.112 51.2514C43.2367 50.1505 42.5835 49.6367 41.2991 49.8789L41.1303 50.2753ZM14.6202 51.4349C16.0881 57.4532 20.2716 60.345 25.9009 61.6074C28.7633 62.3266 31.4789 62.2092 34.2019 61.4973C37.2331 60.712 39.8973 59.3468 41.8936 56.8734C43.112 55.3468 44.0147 53.6661 44.0441 51.6184C45.145 52.1909 45.2551 52.5872 44.5211 53.967C42.9475 57.0265 40.4727 59.5294 37.4312 61.1376C34.0257 62.8991 30.356 63.3688 26.5248 62.789C22.5468 62.1945 19.2808 60.3156 16.4184 57.6221C15.4302 56.6186 14.5632 55.5027 13.8349 54.2973L13.3358 53.5413C13.1376 53.2477 13.2624 53.0129 13.4606 52.7854C13.8458 52.3316 14.2323 51.879 14.6202 51.4276V51.4349Z" fill="black"/>
<path fill-rule="evenodd" clip-rule="evenodd" d="M-3.15573 97.2844C-2.81812 96.1542 -2.69335 94.9872 -2.56857 93.8129C-2.50986 93.2257 -2.44381 92.6386 -2.35573 92.0514L-2.15757 90.7303C-1.90068 88.9542 -1.6438 87.178 -1.24747 85.4165L-0.887842 83.9046C-0.660318 82.9285 -0.425455 81.9523 -0.24931 80.9615C0.0442696 79.2734 0.543352 77.622 1.24794 76.0514C2.3097 73.6978 2.86482 71.1472 2.8773 68.5652C2.92011 67.2753 3.03528 65.9889 3.22225 64.712C3.34702 63.7578 3.46445 62.8037 3.52317 61.8496C3.6406 60.0367 3.55253 58.2532 3.44977 56.3009C3.17087 56.5211 2.89931 56.7413 2.64243 56.9615C2.11276 57.4027 1.57442 57.8333 1.02776 58.2532C-2.12821 60.6312 -4.57958 63.6257 -6.67867 66.9138C-7.47527 68.2141 -8.20527 69.554 -8.86582 70.9285C-9.14472 71.4789 -9.41628 72.0294 -9.70252 72.5725C-10.8294 74.8142 -11.8172 77.1232 -12.6603 79.4863C-12.8071 79.9119 -12.9759 80.3303 -13.13 80.7486C-14.4438 84.1982 -15.7576 87.6624 -16.2713 91.3468C-16.4181 92.4037 -16.7117 93.4165 -16.9979 94.4367C-17.2548 95.3468 -17.5117 96.2569 -17.6805 97.2184C-18.0842 97.2918 -18.4732 97.2918 -18.9355 97.2918L-18.73 96.5725C-18.1135 94.4074 -17.4823 92.2349 -17.1667 89.967C-17.0126 88.822 -16.6823 87.6918 -16.3521 86.5762L-16.1319 85.8055C-15.8016 84.6679 -15.3759 83.567 -14.9576 82.4661C-14.5906 81.512 -14.2236 80.5578 -13.9154 79.567C-13.5557 78.4074 -13.0713 77.2771 -12.5943 76.1542C-12.4108 75.7358 -12.2273 75.3248 -12.0585 74.9064C-10.8401 71.9486 -9.31353 69.1376 -7.72821 66.3707L-7.70619 66.334C-7.16307 65.3872 -6.60527 64.4184 -5.79793 63.6404C-5.1594 63.0312 -5.1227 62.2459 -5.08601 61.4606C-5.07494 60.9643 -5.01595 60.4703 -4.90986 59.9853C-4.54289 57.6587 -4.16858 55.3175 -2.98692 53.2477C-1.7539 51.0899 0.28647 49.8936 2.66445 49.3138C4.39656 48.8881 6.15803 48.6239 7.93418 48.5064C8.66812 48.4697 9.38739 48.2349 10.1067 48C10.4883 47.8753 10.8773 47.7505 11.2663 47.6551C11.6333 47.567 12.0002 47.4642 12.3672 47.3615C13.7837 46.9872 15.1856 46.6055 16.6608 46.6789H16.7342C17.0278 46.6936 17.3433 46.7009 17.3947 47.0826C17.4388 47.4569 17.1745 47.5083 16.9103 47.5597L16.7635 47.589L13.681 48.3156C11.7434 48.7707 9.81308 49.2331 7.85344 49.6587C7.00941 49.8422 6.12867 49.8936 5.25528 49.9523L4.60941 49.9964C3.97821 50.0404 3.38372 50.1211 2.86262 50.4587C4.7562 51.6404 5.87179 53.2331 5.84243 55.5083C5.82042 56.8514 5.87913 58.1872 5.93051 59.5303C6.0039 61.2991 6.0773 63.0679 5.97454 64.8367C5.84977 67.1486 5.59289 69.4312 5.24794 71.7211C5.04977 73.0496 4.90298 74.3927 4.74886 75.7285C4.60207 76.9908 4.45528 78.2532 4.27913 79.5083C4.09564 80.756 3.97821 82.0184 3.85344 83.2734C3.74335 84.433 3.63326 85.5927 3.47179 86.7523C3.28097 88.1101 3.14886 89.4679 3.00941 90.833C2.89198 92.0074 2.77455 93.1964 2.62042 94.3707C2.58372 94.6642 2.56904 94.9725 2.54702 95.2734C2.51032 95.9119 2.47363 96.5578 2.25344 97.2184C1.83509 97.2918 1.41675 97.2918 1.00574 97.2184C1.57829 94.7773 1.98775 92.3009 2.23142 89.8055L2.26078 89.5266C2.40757 88.3156 2.51032 87.1046 2.62042 85.8863C2.78922 83.9046 2.96537 81.923 3.30298 79.956C3.42625 79.1654 3.51197 78.3694 3.55987 77.5707C3.6406 76.5358 3.72133 75.5009 3.96354 74.4808C4.51413 71.9213 4.83346 69.3176 4.91766 66.7009C5.12317 62.8624 5.17454 59.0092 4.93968 55.178C4.86629 53.9523 4.60207 52.7193 3.50849 51.7285C3.62592 52.0954 3.75069 52.4404 3.87546 52.778C4.14702 53.4973 4.4039 54.1725 4.46262 54.8697C4.62391 56.8887 4.67781 58.9148 4.62408 60.9395C4.58739 63.3028 4.33051 65.6514 4.06629 68L3.80941 70.4294C3.54519 73.1009 3.17087 75.7431 2.78922 78.3853L2.29748 81.9156C2.15069 82.9798 2.04794 84.0514 1.93051 85.123C1.80574 86.4074 1.67363 87.6918 1.4828 88.9688C1.36537 89.7762 1.29198 90.5982 1.21858 91.4129C1.09381 92.7707 0.976379 94.1285 0.631426 95.4569C0.616747 95.545 0.587389 95.6404 0.558031 95.7285C0.418581 96.2275 0.264452 96.756 0.521334 97.2918C0.111439 97.3016 -0.298559 97.277 -0.704355 97.2184C-0.645639 96.6459 -0.557566 96.0954 -0.469492 95.5523C-0.396097 95.0753 -0.315365 94.5982 -0.263988 94.1138C-0.161236 93.1083 -0.0438042 92.1101 0.0662861 91.112L0.43326 87.8019C0.653442 85.6734 0.932343 83.5523 1.21858 81.4312L1.58555 78.7156C1.43876 79.3175 1.26262 79.9046 1.08647 80.4844C0.82959 81.3285 0.57271 82.1652 0.440599 83.0239C0.249773 84.2569 0.000230789 85.4679 -0.263988 86.6936C-0.594263 88.2716 -0.924538 89.8496 -1.11536 91.4642L-1.34289 93.1303C-1.58193 94.5051 -1.712 95.8965 -1.73188 97.2918H-3.15573V97.2844ZM1.26996 56.6019C1.70959 56.1165 2.21622 55.6964 2.77454 55.3542C3.26629 55.0753 3.40574 54.6202 3.22959 54.1578C3.14152 53.9376 3.11216 53.6808 3.07546 53.4312C2.99473 52.8587 2.91399 52.2789 2.22408 51.9853C1.85711 51.8239 1.50482 51.9633 1.24794 52.1468C0.755888 52.4771 0.323973 52.8892 -0.0291252 53.3652C-1.29151 55.2734 -1.98876 57.4165 -2.64931 59.8459C-1.84197 59.0386 -1.01995 58.4147 -0.205273 57.7835C0.29381 57.4019 0.785553 57.0202 1.26996 56.6092V56.6019ZM-1.48968 53.6661C-2.20894 55.3982 -2.93555 57.1156 -3.10435 59.0239C-3.14706 59.8539 -3.4386 60.6518 -3.94105 61.3138L-3.66949 59.9927C-3.17041 57.5413 -2.67133 55.0826 -1.18876 52.9468L-1.48234 53.6661H-1.48968ZM74.7525 86.6275C75.9122 90.0771 76.5213 93.6734 77.0718 97.2844C77.4755 97.2844 77.8057 97.2844 78.1433 97.211C77.8498 94.3193 77.2112 91.5817 76.5727 88.8441L76.558 88.8C76.2645 87.5083 75.8388 86.2532 75.4131 84.9982L75.0461 83.8973C74.106 80.9026 73.0384 77.9494 71.8461 75.0459C71.1752 73.5409 70.4281 72.0711 69.6076 70.6422C69.2626 70.0184 68.947 69.3945 68.6314 68.756C67.9087 67.2073 67.0256 65.7387 65.9966 64.3743C65.5709 63.8312 65.1305 63.2808 64.9323 62.6642C64.083 60.1301 63.1727 57.6168 62.2021 55.1266C61.6811 53.6555 60.8643 52.3067 59.8021 51.1633C58.3048 49.622 56.2791 49.0716 54.2901 48.5945C52.6021 48.1982 50.9067 47.8606 49.2112 47.5303L46.2388 46.9285C43.7324 46.4068 41.1628 46.2584 38.6131 46.4881C38.2094 46.5248 37.8791 46.6202 37.7323 47.2661C38.8039 47.3909 39.8755 47.4129 40.9397 47.4422C42.7158 47.4936 44.492 47.5376 46.2534 48.022C48.103 48.5211 49.9966 48.9248 51.9342 49.3358C52.8516 49.5266 53.769 49.7175 54.7158 49.9303C54.0406 50.6422 54.0186 51.3542 53.9966 52.0587L53.9892 52.389C53.9305 53.4165 54.092 54.422 54.2461 55.4275C54.3562 56.1175 54.4663 56.8074 54.503 57.4973C54.6791 60.7853 55.2076 64.0294 55.736 67.2587L55.8314 67.8753C56.0883 69.4386 56.2718 71.0092 56.4553 72.5725C56.6241 73.967 56.7855 75.3688 57.0057 76.756C57.3507 79.0312 57.4755 81.3358 57.6002 83.633C57.6883 85.1964 57.7764 86.7597 57.9305 88.323C58.0773 89.8642 58.1947 91.4129 58.3048 92.9688C58.4076 94.4074 58.5103 95.8459 58.6498 97.2844H59.5158C59.4718 93.6808 59.2076 90.0918 58.936 86.4954C58.8039 84.6459 58.6645 82.8037 58.5544 80.9615C58.4459 79.4236 58.2745 77.8908 58.0406 76.367C57.9232 75.5743 57.8204 74.789 57.7177 74.0037C57.4461 71.6771 57.0791 69.3652 56.7122 67.0532C56.3966 65.0569 56.081 63.0679 55.8314 61.0642C55.6993 60.0954 55.5378 59.1413 55.3911 58.1798C55.0534 56.1835 54.7305 54.1945 54.7011 52.1615C54.6938 51.3542 54.9507 50.7156 55.6186 50.1798C54.547 52.389 55.0167 54.5248 55.4865 56.6386C55.6112 57.2037 55.7287 57.7542 55.8241 58.312C55.9122 58.8037 56.0076 59.2881 56.1177 59.7798C56.3158 60.756 56.5213 61.7395 56.5727 62.7303C56.6167 63.5523 56.7782 64.345 56.925 65.1303C57.0351 65.6808 57.1452 66.2312 57.2186 66.7964C57.3947 68.2422 57.6296 69.6808 57.8644 71.1266C58.2314 73.3725 58.5984 75.6184 58.7599 77.9009C58.892 79.8459 59.2736 81.7835 59.6406 83.6991L59.692 83.9927C59.8755 84.9321 59.9122 85.8863 59.9415 86.811L59.9489 86.9652C60.013 88.3207 60.1158 89.6742 60.2571 91.0239C60.4186 92.7853 60.5874 94.5395 60.5874 96.3083L60.5654 96.6312C60.558 96.8074 60.5434 96.9982 60.558 97.2184C60.8329 97.2768 61.1139 97.3015 61.3947 97.2918C61.5929 93.967 61.3654 90.6569 61.0718 87.1633C62.0993 90.0991 62.6131 92.9909 63.1268 95.9266L63.347 97.2037C63.7433 97.2771 64.1544 97.2918 64.558 97.2257C64.2645 96.5798 64.2204 95.912 64.1764 95.2587C64.1397 94.8477 64.1103 94.4441 64.0296 94.0477L63.78 92.9762C63.2076 90.4074 62.6351 87.8386 61.5782 85.3798L61.3507 84.8734C61.0379 84.2986 60.8315 83.6721 60.7415 83.0239C60.6608 81.923 60.4406 80.8441 60.2278 79.7798L60.0443 78.8771C59.8 77.515 59.609 76.144 59.4718 74.767C59.3103 73.3652 59.1488 71.956 58.8773 70.5615C58.6057 69.1817 58.3635 67.7945 58.136 66.4074C57.769 64.2422 57.4021 62.0771 56.8883 59.9266L56.7415 59.3101C56.4949 58.4243 56.3303 57.5178 56.2498 56.6019C56.3672 56.6532 56.4773 56.6826 56.5727 56.7193C56.7489 56.778 56.881 56.822 56.9911 56.9028L57.0645 56.9615C59.3544 58.723 61.6589 60.4991 63.4571 62.7964C65.0502 64.7779 66.428 66.9233 67.5672 69.1964C67.9929 70.0771 68.4479 70.9578 68.8883 71.8312C69.8821 73.6973 70.7907 75.6075 71.6112 77.556C72.4773 79.6771 73.1819 81.8496 73.8865 84.0147C74.1654 84.8954 74.4516 85.7615 74.7452 86.6275H74.7525ZM56.8736 55.5964C56.4259 55.3395 56.1103 54.9945 56.0369 54.4661C55.7528 53.6816 55.6795 52.8364 55.8241 52.0147C55.9855 50.8918 56.7562 50.5762 57.769 51.0606C59.2296 51.7431 59.8681 53.0789 60.492 54.378C60.5654 54.5101 60.6241 54.6496 60.6901 54.7817C61.292 56.022 61.7911 57.3138 62.3195 58.6863L63.0534 60.5945L62.2167 59.8019C60.955 58.5527 59.5953 57.4065 58.1507 56.3743C57.7397 56.0954 57.3067 55.8459 56.8736 55.5964Z" fill="black"/>
<path d="M10.3487 5.82016C14.0037 -1.39452 32.8221 -8.11011 31.3028 -9.26975C31.2808 -9.6514 31.523 -9.8569 31.8386 -9.94498C35.1413 -10.8844 38.4881 -11.6697 41.9524 -11.5009C45.2918 -11.3395 47.8386 -9.78351 49.3358 -6.77433C50.1652 -5.10828 50.7597 -3.31745 50.6569 -1.39452C50.618 -1.05673 50.6712 -0.714698 50.8107 -0.404621C50.9502 -0.0945444 51.171 0.172048 51.4496 0.36695C53.8496 2.26053 54.0918 6.88438 51.8533 8.93942C51.5083 9.25502 51.8019 9.63667 51.9267 10.1137C52.2202 11.288 51.4863 12.3669 50.8478 13.3284C50.2166 14.2825 50.1652 15.4569 49.512 16.455C49.4166 13.1303 49.9524 9.72475 48.2863 6.47337C46.8408 8.41326 44.8271 9.85491 42.5248 10.5981C39.4524 11.6751 36.1474 11.9083 32.9542 11.2734C30.7524 10.8624 28.4991 10.6936 26.2606 10.5614C24.9867 10.4486 23.7035 10.611 22.4979 11.0378C21.2923 11.4646 20.1926 12.1456 19.2735 13.0348C18.1337 14.1248 17.4692 15.6199 17.4239 17.1963C17.2771 19.4715 17.101 21.7468 17.2771 24.022C17.3138 24.6018 17.2184 25.233 16.5065 25.3358C15.934 25.4092 15.479 25.1156 15.112 24.6165C14.4808 23.7358 14.5835 22.6055 14.0037 21.6807C13.5581 20.9139 12.9524 20.2521 12.228 19.7404C11.5035 19.2287 10.6773 18.8792 9.80557 18.7156C9.54135 18.6642 9.3285 18.789 9.09364 18.8844C8.30098 19.222 8.0074 18.9725 7.86795 18.0991C7.55236 16.022 6.70098 13.0348 10.356 5.82016H10.3487Z" fill="black"/>
<path d="M38.5031 38.9725C37.7398 38.0624 36.9912 37.2844 35.7215 37.4532C35.6741 37.4615 35.6254 37.46 35.5786 37.4488C35.5318 37.4376 35.4878 37.4169 35.4493 37.388C35.4107 37.3591 35.3786 37.3227 35.3547 37.2809C35.3308 37.239 35.3158 37.1928 35.3105 37.1449C35.2738 36.9394 35.3912 36.8 35.5453 36.6679C36.1178 36.1688 37.16 36.1688 38.0848 36.6899C38.8921 37.1303 39.4573 38.1358 39.3252 38.8477C39.2004 39.4789 38.8995 39.3394 38.5031 38.9725Z" fill="black"/>
<path d="M34.6719 30.6055C35.0682 29.9669 36.3306 29.71 37.0278 30.0697C37.5122 30.3192 37.982 30.6275 38.4957 30.1944C38.9728 29.7834 38.8333 29.299 38.6058 28.822C38.4884 28.5871 38.5471 28.4036 38.7673 28.2715C38.9875 28.1321 39.171 28.1908 39.3691 28.3302C39.6163 28.502 39.805 28.7452 39.9099 29.0272C40.0149 29.3093 40.031 29.6167 39.9563 29.9082C39.8388 30.444 39.6774 31.0825 39.0242 31.3027C38.7306 31.4055 38.3783 31.5596 38.1214 31.4788C36.9911 31.1339 35.6407 31.7284 34.6719 30.5981V30.6055Z" fill="black"/>
<path d="M42.6716 26.8991C43.6257 26.9211 44.5358 26.9798 45.4312 27.0825C45.6514 27.1119 45.7982 27.3247 45.7982 27.5743C45.7982 27.8165 45.6734 27.9853 45.4532 28.088C44.6312 28.4403 43.8385 28.6899 42.9798 28.1027C42.5028 27.7724 42.3193 27.4642 42.6716 26.8991ZM30.9431 26.4954C31.4569 26.4954 31.5156 26.7743 31.4569 27.1192C31.3101 27.8679 29.989 28.7633 29.2257 28.6238C28.7927 28.5504 28.455 28.3302 28.4404 27.8532C28.4257 27.3614 28.7927 27.2513 29.1963 27.2367C29.8569 27.2147 30.356 26.855 30.9431 26.5027V26.4954ZM28.5578 23.5302C28.9248 22.6495 29.2183 21.3724 30.3266 21.8789C31.8459 22.5688 31.3468 24.1321 31.0385 25.3578C30.9211 25.8202 29.9743 26.5247 29.6954 26.4073C28.4991 25.9082 28.2862 24.8147 28.5578 23.5302ZM45.211 26.2312C44.5798 26.7816 43.9633 26.789 43.5816 26.1211C42.9211 24.9468 42.9505 23.7137 43.8239 22.6569C44.0073 22.4367 44.8367 22.3926 45.0202 22.5835C46.0477 23.6844 46.0917 24.9174 45.211 26.2312Z" fill="black"/>
<path d="M32.3014 19.3615C31.6628 18.4734 30.4518 18.1872 29.4536 18.4441C28.5729 18.6789 27.861 19.2514 26.9876 19.501C26.694 19.5817 26.4371 19.6991 26.2757 19.3468C26.1362 19.0606 26.1656 18.8037 26.4371 18.5909C27.817 17.5413 30.3711 16.6165 32.2133 17.6441C32.6615 17.9196 33.0387 18.2967 33.3142 18.745C33.5564 19.0899 33.6445 19.5964 33.3142 19.8532C32.8812 20.1909 32.5803 19.7652 32.3014 19.3615ZM45.9454 19.8019C45.2335 19.3248 44.5582 19.2661 43.8903 19.7432C43.6555 19.912 43.3986 20.0954 43.1564 19.8019C42.9142 19.501 42.9803 19.1707 43.2518 18.8771C43.6628 18.4294 44.2206 18.356 44.7784 18.2899C45.4269 18.2283 46.0734 18.425 46.5777 18.8373C47.0821 19.2495 47.4034 19.844 47.472 20.4918C47.4867 20.8074 47.472 21.1597 47.0903 21.2477C46.7454 21.3211 46.4812 21.123 46.3417 20.8147C46.2023 20.5065 46.1069 20.1762 45.9454 19.8019ZM38.8702 18.4221C39.2518 17.9376 39.4573 17.3211 39.9344 16.9101C40.1179 16.756 40.2573 16.5065 40.5582 16.6753C40.8298 16.8294 40.8518 17.1083 40.7784 17.3358C40.5509 17.967 40.2867 18.5909 39.9931 19.2C39.8463 19.4936 39.4793 19.6037 39.1858 19.5083C38.7014 19.3615 38.8188 18.9285 38.8628 18.4881V18.4147L38.8702 18.4221Z" fill="black"/>
<path d="M38.8775 18.4074C38.7307 18.7156 38.6132 19.0312 38.4591 19.3321C38.3417 19.5597 38.1509 19.7578 37.872 19.6697C37.5343 19.567 37.505 19.2808 37.5784 18.9872C37.6665 18.6863 37.7619 18.4 37.872 18.1064C38.0188 17.7615 37.9821 17.1963 38.5545 17.2771C39.171 17.3725 38.8775 17.8936 38.8775 18.334V18.4074Z" fill="black"/>
</g>
</g>
<defs>
<clipPath id="clip0_419_1478">
<path d="M0 32C0 14.3269 14.3269 0 32 0C49.6731 0 64 14.3269 64 32C64 49.6731 49.6731 64 32 64C14.3269 64 0 49.6731 0 32Z" fill="white"/>
</clipPath>
</defs>
</svg>
