<svg width="64" height="64" viewBox="0 0 64 64" fill="none" xmlns="http://www.w3.org/2000/svg">
<g clip-path="url(#clip0_419_1334)">
<mask id="mask0_419_1334" style="mask-type:luminance" maskUnits="userSpaceOnUse" x="0" y="0" width="64" height="64">
<path d="M64 0H0V64H64V0Z" fill="white"/>
</mask>
<g mask="url(#mask0_419_1334)">
<path d="M47.6329 57.1522C40.3521 78.9504 20.9319 85.6733 10.6641 58.6054C9.24755 54.8843 12.9393 53.5045 15.5228 51.8605C17.2916 50.7375 18.2237 49.7687 18.1136 48.7632C17.5998 44.0366 15.4053 30.8697 15.4053 30.8697L15.1852 30.444C15.1852 30.444 15.2365 30.3265 15.0237 30.532C14.8035 30.7522 14.2971 33.0421 12.3081 33.0421C10.5099 33.0421 8.69709 32.2421 7.83103 26.7082C7.50076 24.7045 7.6769 19.4495 9.9081 18.4953C10.8255 18.1064 11.6696 17.9669 12.4916 18.4366C13.3209 18.9064 11.5375 16.822 20.7118 9.18893C26.6714 4.21278 36.0879 3.48617 39.8897 4.33021C43.6916 5.17425 47.4861 7.03113 49.1668 10.9724C51.2072 15.7431 47.2659 19.3614 48.1393 30.2385C47.9778 34.1724 48.198 42.8036 37.3797 45.6953C35.3246 46.2458 35.9631 49.2476 39.0457 49.9816C43.9631 51.5229 47.6329 55.288 47.6329 57.1669" fill="white"/>
<path fill-rule="evenodd" clip-rule="evenodd" d="M47.633 23.2806L47.6403 23.1779C47.9412 20.5063 48.2422 17.9155 49.6293 15.5889C50.1064 15.9118 50.0477 16.3228 49.9009 16.7045C48.4403 20.4623 48.5798 24.3668 48.7119 28.2714L48.7412 29.299C48.8954 34.1724 47.677 38.6054 44.433 42.3265C43.3027 43.6182 41.8055 44.5136 40.2862 45.2843C38.7155 46.0916 38.3853 46.7595 38.877 48.4843L38.9357 48.6751C39.0385 48.9613 39.1412 49.2549 38.8623 49.5412C38.5321 49.8788 38.1651 49.7834 37.7761 49.6733L37.7321 49.6659C34.0931 48.647 30.6809 46.9459 27.677 44.6531C27.2366 44.3302 26.8844 43.8971 26.5394 43.4714L26.5174 43.4421C26.3339 43.2219 26.2972 42.8696 26.5541 42.6788C26.7963 42.4953 26.9798 42.6421 27.1926 42.8109L27.266 42.8769C28.8686 44.1773 30.8137 44.9854 32.866 45.2035C33.8495 45.3063 34.8183 45.2696 35.8018 45.2329C36.3449 45.2109 36.888 45.1889 37.4385 45.1962C38.1871 45.1962 38.811 44.8512 39.3981 44.521L39.6036 44.4035C41.644 43.2659 43.5889 41.9962 44.9027 39.9485C46.0844 38.1136 46.8036 36.1173 47.222 34.0109C47.7504 31.3613 47.7064 28.6751 47.6623 25.9522C47.6403 25.0714 47.6256 24.176 47.6256 23.2806H47.633ZM10.6862 17.7467C12.2935 17.6219 13.1816 18.5687 13.9376 19.6769C14.8335 21.031 15.3968 22.5776 15.5816 24.1907C15.6183 24.4623 15.655 24.7485 15.4935 25.0201C15.1633 25.0641 15.1339 24.7999 15.1266 24.609C15.0899 23.0898 14.4146 21.7687 13.7394 20.4916C13.255 19.5742 12.5504 18.6861 11.4348 18.4659C10.1724 18.2091 9.01279 19.3467 8.44032 20.8292C7.3761 23.5889 7.55958 26.3045 8.54307 28.976C8.96876 30.143 9.50454 31.332 10.5834 32.1467C11.6697 32.976 12.9834 32.8292 13.7834 31.7283L13.9302 31.5448C14.077 31.354 14.2238 31.1705 14.2972 30.9577C14.4513 30.532 14.6935 30.1357 15.1266 30.1944C15.6256 30.2678 15.7137 30.8035 15.7651 31.2219C16.2204 35.0667 16.7587 38.9013 17.3798 42.7228L17.8128 45.5705C18.0036 46.8256 18.2238 48.6311 18.077 49.3944C18.0675 49.4479 18.0602 49.5017 18.055 49.5558C18.0256 49.7613 18.011 49.9228 17.7467 49.9595C17.3871 50.0182 17.233 49.8127 17.1816 49.4898C17.0128 48.2421 16.9614 47.7577 16.888 45.8494C16.822 43.9999 16.477 42.1797 16.1247 40.3522L15.7577 38.3705C15.3761 36.11 15.0018 33.8201 14.9651 31.2513L14.8183 31.4714C14.2605 32.3008 13.8128 32.976 13.0201 33.2329C12.4317 33.4583 11.7869 33.491 11.1787 33.3261C10.5706 33.1612 10.0306 32.8073 9.63665 32.3155C8.60243 31.1474 7.87591 29.7397 7.52289 28.2201C6.90637 25.7246 6.79628 23.2953 7.58894 20.8366C7.97059 19.6549 9.32839 17.5558 10.6862 17.754V17.7467ZM13.2256 27.1045C13.5486 27.3393 13.8422 27.5448 14.1064 26.7081C14.0256 23.6109 13.0275 21.6292 11.4788 21.5485C12.3009 22.6201 13.0935 23.6623 13.1669 25.1081C12.8615 24.9522 12.5936 24.7318 12.3816 24.4623C12.2348 24.3008 12.088 24.1393 11.9045 24.0219L11.6844 23.8457C11.3321 23.5815 10.9724 23.3026 10.3779 23.5155C10.6568 23.9412 11.0385 24.2494 11.4275 24.543C11.8678 24.8879 12.3082 25.2256 12.5724 25.754C11.7944 26.3191 11.4568 27.0531 11.8605 27.9485C12.2128 28.7191 12.7339 29.3577 13.7614 29.4017C13.7174 28.9393 13.4165 28.6017 13.1155 28.2714C12.7486 27.8751 12.4036 27.4935 12.5651 26.9063C12.7999 26.7962 13.0201 26.9577 13.2256 27.1045Z" fill="black"/>
<path d="M77.3576 96.3156L-18.7158 96.5138C-18.7158 96.5138 -16.8222 82.6422 -14.591 79.2147C-13.3947 77.3798 -15.369 75.9119 -15.7947 74.0551C-16.2204 72.2055 -16.6608 69.8055 -16.5654 69.1083C-16.4773 68.411 -16.6681 66.9578 -16.881 65.9303C-17.1011 64.9028 -16.8956 63.8532 -17.3947 62.9578C-17.9085 62.0697 -17.9819 61.123 -17.3947 60.7046C-16.8076 60.2789 7.64748 51.6404 7.64748 51.6404L8.40344 50.0551C8.40344 50.0551 11.853 47.5009 13.7025 47.0679C15.5521 46.6349 17.1594 46.356 17.1594 46.356C17.1594 46.356 16.7778 48.1395 17.0567 49.0422C17.3502 49.9523 23.0456 53.7395 27.5667 53.3725C33.7612 53.3725 38.642 50.4074 39.0383 49.2624C39.4346 48.1248 38.7961 47.8826 38.5539 46.9358C38.3044 45.9963 38.8989 45.6514 39.9704 46.2386C41.0346 46.8257 55.4787 54.378 58.6126 55.8092C61.7392 57.2477 73.4823 60.9028 73.4823 60.9028C73.4823 60.9028 75.6989 61.5486 75.442 62.1652C74.8842 63.4789 73.6732 62.2386 73.6732 65.8055C73.6732 68.0074 71.8163 75.0239 71.8163 75.0239C71.8163 75.0239 74.7227 84.1028 75.2071 85.9009C75.6989 87.6991 77.3576 96.323 77.3576 96.323V96.3156Z" fill="white"/>
<path fill-rule="evenodd" clip-rule="evenodd" d="M11.0971 96.5138C10.9062 92.3156 10.7301 88.1248 10.7741 83.9193C10.8328 78.9431 10.8255 73.9523 10.7227 68.9762C10.7081 68.345 10.7227 67.7138 10.7301 67.0899C10.7521 65.8789 10.7668 64.6679 10.6273 63.4569C10.6127 63.3541 10.6127 63.2514 10.6127 63.1413C10.6127 62.8697 10.6127 62.5835 10.4145 62.2826L9.9521 62.5028C9.36495 62.7963 8.77779 63.0973 8.05853 62.9872C7.20715 62.8477 6.78146 62.5174 6.84018 61.6441C6.91073 60.6712 7.02091 59.7015 7.17045 58.7376C7.31724 57.8129 7.36128 56.8808 7.40532 55.934C7.46403 54.8184 7.52275 53.6807 7.73559 52.5285C6.39247 52.8954 5.12275 53.2624 3.91908 53.8349C2.27504 54.6202 0.498892 55.0239 -1.26258 55.4275L-1.65891 55.5156C-3.49377 55.9266 -5.29193 56.4697 -7.04606 57.145C-7.69193 57.3945 -8.35248 57.6147 -9.01303 57.8349C-10.0551 58.1582 -11.0771 58.5429 -12.0736 58.9872C-13.6001 59.7176 -15.1007 60.5009 -16.5727 61.3358C-17.1231 61.6441 -17.2112 62.1505 -16.7195 62.6569C-16.4908 62.8781 -16.3337 63.1627 -16.2683 63.4741C-16.2029 63.7854 -16.2322 64.1092 -16.3525 64.4037C-16.4239 64.6271 -16.4491 64.8627 -16.4264 65.0962C-16.4037 65.3297 -16.3336 65.556 -16.2204 65.7615C-15.9562 66.4125 -15.8481 67.1163 -15.9048 67.8165C-15.9048 68.1321 -15.9048 68.4477 -15.8828 68.7486C-15.592 71.5698 -14.7225 74.3007 -13.3286 76.7707C-12.7831 77.8307 -12.2931 78.9184 -11.8607 80.0294C-11.4938 80.8954 -11.1415 81.7615 -10.7305 82.5982C-10.5837 82.8918 -9.8057 84.8 -8.90294 87.1413C-8.82955 87.3468 -8.9323 87.6697 -9.04239 88C-9.15248 88.3376 -9.26258 88.6826 -9.18184 88.8954C-9.09377 89.1156 -8.84423 89.211 -8.58001 89.3138C-8.34514 89.3872 -8.11028 89.4826 -7.94882 89.6587C-7.0534 90.6716 -6.79652 91.4202 -6.45891 92.4257L-6.44423 92.4551C-5.89377 94.0771 -5.82037 95.9046 -5.81304 96.4184C-6.15748 96.5009 -6.51595 96.5059 -6.86258 96.433C-6.71579 95.3835 -6.93597 94.4294 -7.16349 93.4752C-7.23689 93.1376 -7.32496 92.8 -7.38368 92.4551C-7.58918 91.3321 -8.08092 90.5174 -9.18184 90.1285C-9.95249 89.8642 -10.1947 89.3798 -10.114 88.5285L-10.0406 87.978C-9.93781 87.2514 -9.82037 86.5028 -10.2607 85.8496C-11.3984 84.1615 -12.213 82.3046 -13.0424 80.4184L-13.5415 79.2881L-13.6442 79.4496C-13.8333 79.7067 -13.9819 79.9914 -14.0846 80.2936L-14.7011 82.422C-15.5451 85.3725 -16.3965 88.3156 -17.0277 91.3174C-17.3947 93.0422 -17.6075 94.767 -17.747 96.5138H-18.8112C-19.0681 95.6697 -18.8846 94.8624 -18.7011 94.0551C-18.6365 93.7853 -18.5802 93.5136 -18.5323 93.2404C-18.0552 90.2752 -17.2919 87.3908 -16.5286 84.4991L-16.4919 84.345C-15.9268 82.2092 -15.1488 80.1762 -14.3268 78.1431C-14.158 77.7321 -14.2387 77.4679 -14.5323 77.1376C-15.6479 75.8532 -16.0222 74.2312 -16.2791 72.6165L-16.4112 71.8239C-16.7048 70.0991 -16.991 68.3743 -16.8516 66.6129C-17.3433 66.0404 -17.3873 65.3358 -17.424 64.6312C-17.4681 63.8973 -17.5121 63.1633 -18.0626 62.5541C-18.5323 62.0404 -17.8791 60.7046 -16.9617 60.1908C-14.525 58.833 -12.0589 57.5486 -9.36533 56.756C-8.10493 56.373 -6.86533 55.9247 -5.65157 55.4129C-4.4112 54.8991 -3.11946 54.6202 -1.82771 54.3266C-1.0057 54.1431 -0.191015 53.9596 0.608984 53.7248C1.60715 53.4312 2.56862 53.0642 3.54476 52.6973C4.76423 52.197 6.0145 51.7753 7.28788 51.4349C7.80165 51.3101 8.11724 50.9872 8.12458 50.4367C8.13192 49.8716 8.43284 49.534 8.86587 49.211C10.5172 47.9707 12.4402 47.3762 14.3558 46.7743L14.6053 46.7009C14.9136 46.5982 15.1998 46.4661 15.486 46.334C15.9553 46.0798 16.4639 45.9061 16.9906 45.8202C17.2328 45.7762 17.4677 45.7321 17.7393 45.8202C17.8861 46.3046 17.5925 46.5468 17.2402 46.6936L16.1099 47.156C14.8483 47.7019 13.568 48.2038 12.2714 48.6606C11.6989 48.8587 11.1925 49.1743 10.6861 49.4752C10.2604 49.7395 9.83467 49.9963 9.36495 50.1872C9.19614 50.2606 9.05669 50.5982 9.02733 50.8257C8.78513 52.9762 8.56495 55.1266 8.34477 57.2844L8.24201 58.2532L8.13926 59.2881C8.08055 59.9193 8.01449 60.5358 7.9411 61.167C7.9411 61.2257 7.92642 61.2771 7.91174 61.3358C7.87504 61.556 7.83834 61.7835 8.04385 61.9596C8.26403 62.1358 8.4622 62.033 8.66036 61.923L8.82183 61.8496C10.8989 60.9468 12.3741 59.3395 13.8494 57.7395C14.1796 57.3725 14.5099 57.0055 14.8475 56.6606C15.9264 55.5303 16.8218 55.2734 18.2016 55.9486C18.62 56.1468 19.0016 56.2863 19.5007 56.1028C19.2365 55.5596 18.9503 55.0312 18.664 54.5028C18.0475 53.3725 17.4457 52.2569 17.0347 51.0459C16.6677 49.9743 16.7778 48.8734 16.8805 47.7872L16.9026 47.567C16.9393 47.156 17.2182 46.8184 17.7393 46.7817C18.1723 47.2074 18.1796 47.9046 18.1796 48.323C18.165 50.1578 19.5081 50.767 20.7264 51.3174L20.7631 51.3395C24.4549 53.0202 28.3741 53.1743 32.3154 52.5725C34.5101 52.2767 36.5643 51.3251 38.209 49.8422C39.0457 49.0789 38.9429 48.1615 38.5393 47.3248C38.209 46.6642 38.4292 46.2385 38.8108 45.8129C39.1558 45.4312 39.5668 45.5927 39.9484 45.7395L40.1172 45.8129C42.3778 46.6202 44.4475 47.8092 46.5319 48.9982L46.8989 49.2184C47.8857 49.7594 48.8972 50.2542 49.9301 50.7009C50.8695 51.1266 51.809 51.5596 52.7191 52.0587C55.2585 53.4532 57.864 54.7303 60.4769 55.9927C61.8347 56.6532 63.2732 57.145 64.7117 57.6441L65.9081 58.0697C66.9283 58.4367 67.9558 58.7743 68.976 59.1193C69.8567 59.4129 70.7374 59.7064 71.6035 60.0147C71.9998 60.1615 72.4108 60.1762 72.8218 60.1982C73.2549 60.2202 73.6879 60.2422 74.1062 60.4037L74.4365 60.5285C74.9503 60.7119 75.4494 60.8954 75.8163 61.3505C76.3741 62.0477 76.3521 62.6275 75.5961 63.0899C74.7007 63.6257 74.2163 64.2275 74.6127 65.3064C74.7301 65.6294 74.5906 65.967 74.4659 66.2826L74.4292 66.3707L74.4145 66.4074C73.6805 68.2422 73.1815 72.2496 73.0494 73.2624L73.0273 73.4679C72.7484 75.4496 73.2328 76.8441 73.776 78.4367C73.9143 78.8359 74.0464 79.2371 74.1723 79.6404C75.0383 82.4587 75.875 85.2918 76.6383 88.1395C77.276 90.5354 77.8001 92.9601 78.209 95.4055C78.253 95.6551 78.2383 95.9193 78.2237 96.2129V96.433C77.9286 96.5127 77.6184 96.5178 77.3209 96.4477C76.631 91.3174 75.1411 86.4514 73.6512 81.5927C73.1593 79.9898 72.6822 78.3824 72.22 76.7707C71.7659 77.5122 71.3966 78.3025 71.1191 79.1266C70.3725 81.5754 69.0972 83.8304 67.3833 85.7321L67.2952 85.8275C67.0016 86.1505 66.6494 86.5248 66.7081 86.789C66.9062 87.7431 66.4218 88.3009 65.9154 88.8881L65.6805 89.167C65.3433 89.5914 65.1254 90.0981 65.0494 90.6349C64.9539 91.2367 64.8438 91.8385 64.7338 92.4404C64.4561 93.7833 64.277 95.1447 64.198 96.5138H63.1484C63.2952 96.0661 63.3246 95.545 63.3686 94.8844C63.4325 93.2135 63.7239 91.5592 64.2347 89.967C64.286 89.6734 64.3594 89.2404 65.042 88.5358C65.6659 87.9046 65.6585 87.156 65.6512 86.6863C65.6512 86.5101 65.6512 86.378 65.6805 86.3046C66.0916 85.2624 67.5448 83.4055 68.2567 82.4881C68.4769 82.2165 68.6237 82.0257 68.653 81.967C70.3484 79.178 71.5448 76.1028 72.176 72.8954C72.3815 71.8899 72.5429 70.8697 72.7117 69.8422C72.8692 68.8165 73.0453 67.7936 73.2402 66.7743C73.4237 65.7982 73.6072 64.8294 73.6512 63.8239C73.6732 63.2808 74.1356 63.0165 74.5686 62.7596L74.664 62.7009L74.7007 62.6863L74.7301 62.6642C74.965 62.5174 75.2218 62.3707 75.1851 62.0551C75.1484 61.7615 74.8989 61.6881 74.6494 61.6147L74.5539 61.5853C73.8053 61.3652 73.0347 61.2037 72.2714 61.0422C71.2866 60.8591 70.3156 60.609 69.365 60.2936L67.875 59.7798C66.8549 59.4202 65.842 59.0752 64.8438 58.6789C62.9165 57.9469 61.01 57.1613 59.1264 56.323C56.9633 55.3244 54.8337 54.2547 52.7411 53.1156C51.3837 52.3503 49.9587 51.7115 48.4842 51.2074C49.9227 53.7541 50.1796 56.5505 50.4438 59.3395C50.5099 60.0514 50.576 60.756 50.664 61.4532C50.7741 62.3853 50.4438 63.178 49.6659 63.6551C48.7631 64.1982 47.809 64.1101 46.9062 63.5523L46.6861 63.3908C46.5246 63.2441 46.3484 63.0973 46.0769 63.1119C46.0475 66.7523 46.0769 70.3927 46.0916 74.033C46.1356 81.4752 46.1796 88.9321 45.8493 96.4184C45.4488 96.5071 45.0345 96.5146 44.631 96.4404C44.6677 94.9431 44.7411 93.4606 44.8072 91.9853C44.8805 90.2679 44.9613 88.5578 45.0053 86.8477C45.064 83.9193 45.0494 80.9982 45.0347 78.0697L45.02 76.4257C45.0053 72.5358 44.9613 68.6385 44.9246 64.7413L44.9099 63.2808C44.9099 63.134 44.9172 62.9872 44.9393 62.8477C44.976 62.4441 45.02 62.0404 44.6971 61.6587C44.198 61.0716 43.7209 60.4771 43.2438 59.8752L42.275 58.6863C41.7159 58.0422 41.0444 57.5051 40.2934 57.1009C39.5301 56.6606 39.1998 56.8808 39.0237 57.7101C38.9136 58.2019 38.965 58.6789 39.0237 59.156C39.053 59.4275 39.0824 59.6991 39.0824 59.9633C39.1117 65.8936 38.965 71.8165 38.7668 77.7395C38.6567 81.0422 38.5906 84.367 38.5393 87.6771C38.5099 89.4165 38.4292 91.156 38.3558 92.8881C38.2971 94.0991 38.2457 95.3101 38.209 96.5285C37.9154 96.5285 37.4824 96.4918 37.1961 96.433C37.2549 94.7376 37.3429 92.9028 37.4163 91.2808C37.4986 89.8505 37.5597 88.4192 37.5998 86.9872C37.6072 84.4551 37.7099 79.6624 37.8053 75.0679C37.886 71.2 37.9668 67.4789 37.9888 65.3505C38.0101 62.7646 38.0101 60.1786 37.9888 57.5927C37.1521 57.4606 36.4475 57.8642 35.8163 58.4514C35.2277 58.9797 34.5077 59.3397 33.7319 59.4936C30.7668 60.1541 27.7649 60.3523 24.7484 59.8606C23.1851 59.611 21.6952 59.156 20.4989 58.0257C20.2787 57.8055 20.0218 57.6147 19.7209 57.3945C19.5556 57.2716 19.3917 57.1468 19.2292 57.0202C19.2292 57.3652 19.3026 58.5395 19.4053 60.0074C19.5668 62.4514 19.787 65.7248 19.7943 67.3982C19.7943 68.734 19.8604 70.0697 19.9191 71.4055L19.9851 72.8C19.9851 72.9762 20.3521 91.222 20.3521 95.2V95.4569C20.3448 95.8092 20.3301 96.1688 20.4769 96.5138C20.0659 96.5211 19.6695 96.4991 19.2585 96.4404C19.3906 95.1266 19.2145 86.7963 19.0824 80.8367C19.0237 78.0624 18.9796 75.8018 18.9796 75.0018C18.9796 71.9927 18.8182 68.9762 18.6567 65.967C18.5246 63.3321 18.3851 60.7046 18.3484 58.0697C18.3411 57.2844 18.1356 56.8807 17.3723 56.6385C16.5943 56.3817 16.0732 56.6973 15.6475 57.2257C14.9356 58.1064 14.1576 58.9138 13.3062 59.6624C12.7601 60.0953 12.3211 60.6483 12.0232 61.2783C11.7254 61.9084 11.5767 62.5986 11.5888 63.2954C11.5154 67.2954 11.6622 71.2807 11.8016 75.2734C11.9411 79.178 12.0732 83.0826 12.0145 86.9872C11.9778 89.167 12.0292 91.3541 12.0879 93.534L12.1466 96.5138H11.0971ZM48.7484 54.723C48.4475 53.0055 47.7649 51.4202 46.4438 50.3119C44.6971 48.8441 42.62 47.9266 40.5209 47.0092L39.4347 46.5248C39.7463 46.9444 39.9529 47.4326 40.0372 47.9485C40.1214 48.4644 40.0809 48.9929 39.9191 49.4899C39.6074 50.4476 39.1494 51.3512 38.5613 52.1688C37.6292 53.4019 37.1007 54.789 37.4824 56.4624C38.5613 55.8606 39.5668 55.5083 40.7778 56.1248C42.0448 56.8139 43.1292 57.7951 43.9411 58.9872C44.9393 60.323 45.9448 61.6294 47.3319 62.5908C47.8897 62.9798 48.4842 62.9578 49.042 62.7376C49.6072 62.5101 49.5998 61.945 49.5411 61.4239C49.4677 60.7633 49.431 60.0954 49.3943 59.4202C49.2916 57.8789 49.1961 56.323 48.7484 54.723ZM19.5521 54.1358C19.3613 53.7982 19.1778 53.4532 19.0016 53.0936C18.7036 52.4255 18.4051 51.7576 18.1062 51.0899C24.2714 54.7083 30.5613 55.0679 37.1668 52.0661L36.9319 52.6092C36.6677 53.211 36.4182 53.7835 36.2934 54.4147L36.2494 54.6349C36.1833 54.9285 36.1246 55.222 36.1466 55.5303C36.2347 56.9982 35.8237 57.5633 34.4292 58.0771C32.1099 58.9285 29.7172 59.0312 27.2879 58.8844C26.6918 58.8446 26.0941 58.8348 25.4971 58.8551C24.0512 58.9064 22.8622 58.2532 21.6805 57.5927L21.2035 57.3358C20.9345 57.1671 20.7363 56.9062 20.6457 56.6019C20.4035 55.7211 19.9778 54.9285 19.5448 54.1431L19.5521 54.1358Z" fill="black"/>
<path d="M10.4219 6.11374C11.5228 4.49906 13.0421 3.47154 14.6054 2.48805C16.6971 1.16695 18.9357 0.168785 21.2696 -0.645893C22.9063 -1.21837 24.6238 -1.58534 26.2384 -2.21653C28.2054 -2.9725 30.2164 -3.70644 31.6403 -5.39452C32.9614 -6.95048 32.888 -7.81653 31.376 -8.97617C31.354 -9.35782 31.5962 -9.56332 31.9118 -9.6514C35.2146 -10.5908 38.5614 -11.3762 42.0256 -11.2074C45.365 -11.0459 47.9118 -9.48993 49.4091 -6.48076C50.2384 -4.8147 50.8329 -3.02388 50.7302 -1.10094C50.6913 -0.763147 50.7444 -0.421119 50.8839 -0.111042C51.0235 0.199035 51.2442 0.465627 51.5228 0.660529C53.9228 2.55411 54.6788 6.81099 52.4403 8.86603C51.3027 9.91557 53.0715 10.3706 50.921 13.622C50.2898 14.5761 50.2384 15.7504 49.5852 16.7486C49.4898 13.4238 50.0256 10.0183 48.3595 6.76695C46.914 8.70684 44.9003 10.1485 42.5981 10.8917C39.5257 11.9687 36.2206 12.2019 33.0274 11.5669C30.8256 11.1559 28.5724 10.9871 26.3338 10.855C25.0599 10.7422 23.7767 10.9046 22.5711 11.3314C21.3655 11.7581 20.2659 12.4392 19.3467 13.3284C18.2069 14.4184 17.5424 15.9135 17.4971 17.4899C17.3504 19.7651 17.1742 22.0403 17.3504 24.3156C17.3871 24.8954 17.2916 25.5266 16.5797 25.6293C16.0072 25.7027 15.5522 25.4092 15.1852 24.9101C14.554 24.0293 14.6568 22.8991 14.077 21.9743C13.6313 21.2074 13.0256 20.5457 12.3012 20.034C11.5767 19.5223 10.7505 19.1728 9.8788 19.0092C9.61458 18.9578 9.40173 19.0825 9.16687 19.178C8.37421 19.5156 8.08063 19.266 7.94118 18.3926C7.62559 16.3156 7.66962 14.2312 7.97788 12.1688C8.30815 9.99631 9.0788 7.97062 10.4293 6.11374H10.4219Z" fill="black"/>
<path fill-rule="evenodd" clip-rule="evenodd" d="M33.7249 37.0128C34.1506 37.1156 34.6056 37.233 34.4588 37.8715C34.1653 37.9816 33.9524 37.8495 33.7396 37.7174C33.4827 37.5633 33.2258 37.4092 32.8442 37.6293C32.9543 37.0055 33.2772 36.8954 33.6662 36.9981C33.6882 36.9981 33.7029 36.9981 33.7249 37.0128ZM40.5726 37.4385C40.8221 37.6734 40.6607 37.9523 40.4698 38.1725C40.3744 38.2092 40.2864 38.2532 40.2056 38.2972C39.9487 38.4367 39.7359 38.5468 39.4717 38.4147C39.2515 38.0183 39.2735 37.6514 39.6919 37.4092C39.9708 37.2624 40.3231 37.2183 40.5726 37.4385ZM38.7965 38.4073C38.8845 37.8715 38.7084 37.5706 38.1139 37.644C37.7543 37.6954 37.4093 37.7835 37.468 38.2458C37.5194 38.7303 37.835 38.7009 38.1359 38.6715L38.4001 38.6569C38.5102 38.6642 38.6203 38.5761 38.7965 38.4073ZM35.3249 39.7064L35.435 39.6844C35.5451 39.6697 35.6552 39.6477 35.6698 39.4642C34.4295 39.4055 33.4166 38.8257 32.4111 37.9596C32.6627 38.5117 33.076 38.9743 33.5963 39.2862C34.1166 39.5981 34.7194 39.7447 35.3249 39.7064ZM35.3396 38.2385C35.5157 38.7376 35.9121 38.7376 36.3157 38.6055C36.5946 38.5027 36.5726 38.2092 36.5579 37.967C36.5286 37.6 36.279 37.5266 35.9708 37.5046C35.5231 37.4679 35.3689 37.7101 35.3396 38.2385Z" fill="white"/>
<path fill-rule="evenodd" clip-rule="evenodd" d="M39.7725 36.3743C38.8189 36.7588 37.7784 36.8755 36.7633 36.7119C35.8019 36.6532 34.9798 36.3816 34.1652 36.0513C33.3431 35.7431 32.1909 36.2128 31.6331 37.0275C31.1413 37.7614 31.1927 38.4954 31.8899 39.2293C32.6826 40.0734 33.6734 40.7486 34.8257 40.6679C35.4863 40.6165 36.1468 40.5504 36.8074 40.477C38.3266 40.3229 39.8386 40.1614 41.3872 40.2568C42.6716 40.3302 43.3028 39.1192 42.9432 37.8568C42.5248 36.433 41.2844 35.8532 39.7652 36.3816L39.7725 36.3743ZM38.1138 37.644C38.7009 37.5706 38.8844 37.8642 38.7964 38.4073C38.6202 38.5761 38.5028 38.6642 38.4 38.6568C38.3266 38.6568 38.2312 38.6568 38.1358 38.6715C37.8422 38.7009 37.5193 38.7302 37.4679 38.2458C37.4092 37.7835 37.7615 37.6954 38.1138 37.644ZM35.3248 39.699L35.4349 39.677C35.545 39.6623 35.6551 39.6403 35.6698 39.4568C34.4294 39.3981 33.4165 38.8183 32.411 37.9523C32.6626 38.5043 33.0759 38.9669 33.5962 39.2788C34.1166 39.5908 34.7193 39.7373 35.3248 39.699ZM40.5725 37.4385C40.822 37.6734 40.6606 37.9523 40.4698 38.1724C40.3743 38.2091 40.2863 38.2532 40.2055 38.2972C39.9487 38.4367 39.7358 38.5468 39.4716 38.4146C39.2514 38.0183 39.2734 37.6513 39.6918 37.4091C39.9707 37.2623 40.323 37.2183 40.5725 37.4385ZM35.3395 38.2238C35.5156 38.7376 35.912 38.7376 36.3156 38.5908C36.5945 38.4954 36.5725 38.2018 36.5578 37.9596C36.5285 37.5926 36.2789 37.5192 35.9707 37.4972C35.523 37.4605 35.3688 37.7027 35.3395 38.2312V38.2238ZM33.7248 37.0128C34.1505 37.1156 34.6055 37.233 34.4587 37.8715C34.1652 37.9816 33.9523 37.8495 33.7395 37.7174C33.4826 37.5633 33.2257 37.4091 32.8441 37.6293C32.9542 37.0055 33.2771 36.8954 33.6661 36.9981C33.6881 36.9981 33.7028 36.9981 33.7248 37.0128Z" fill="black"/>
<path d="M39.6401 25.6294C39.9263 26.8257 40.1832 27.9486 40.4621 29.0569C40.8291 30.4954 40.6162 31.1413 39.3098 31.6918C37.8419 32.2936 35.9704 32.2055 34.9355 30.5541C34.774 30.2973 34.6713 30.0697 34.7153 29.7762C34.7667 29.5413 34.8548 29.3578 35.1116 29.3138C35.3832 29.2697 35.4786 29.4239 35.5814 29.6514C36.2713 31.0973 37.3208 31.5009 38.7887 30.9064C39.53 30.6129 39.7648 30.0404 39.5226 29.3211C39.001 27.7264 38.6685 26.076 38.5318 24.4037C38.4217 23.3175 38.2236 22.1872 38.9502 21.2257H39.2437L39.6401 25.6294Z" fill="black"/>
<path d="M36.4403 30.055C36.0219 29.4605 36.4403 29.2697 36.8439 29.1523C37.1375 29.0642 37.4458 29.2257 37.4237 29.5633C37.387 30.1504 36.976 30.2092 36.4403 30.055Z" fill="black"/>
<path d="M28.5577 23.5302C28.9247 22.6495 29.2182 21.3724 30.3265 21.8789C31.8458 22.5688 31.3467 24.1321 31.0384 25.3578C30.921 25.8202 29.9742 26.5247 29.6953 26.4073C28.499 25.9082 28.2861 24.8147 28.5577 23.5302ZM45.2109 26.2312C44.5797 26.7816 43.9632 26.789 43.5815 26.1211C42.921 24.9468 42.9503 23.7137 43.8237 22.6569C44.0072 22.4367 44.8366 22.3926 45.0201 22.5835C46.0476 23.6844 46.0916 24.9174 45.2109 26.2312Z" fill="black"/>
<path d="M32.2932 19.2366C33.5209 19.9804 34.4344 21.1471 34.862 22.5174C36.0217 22.2972 37.1152 22.0917 38.2675 22.6788C38.5709 21.7387 39.0657 20.8716 39.7207 20.132C40.8657 18.9357 43.4492 18.055 45.3207 18.6788C47.2437 19.3247 48.6162 20.6018 49.1886 22.4366C49.454 23.2725 49.5173 24.1595 49.3731 25.0245C49.2289 25.8896 48.8814 26.7081 48.3593 27.4128C45.7317 31.1559 40.2639 30.1651 38.6418 26.3852C38.3776 25.7834 38.2235 25.1449 38.1795 24.4917C38.1354 23.721 37.7905 23.332 37.0785 23.2219C36.2051 23.0898 35.5226 23.3541 35.2143 24.2421C34.9721 24.91 34.9795 25.6366 34.6712 26.3118C33.6951 28.4403 31.8895 29.7907 29.4015 29.7687C27.3097 29.7541 24.8951 28.4476 24.3373 26.1871C23.7207 23.6917 21.7317 23.1559 19.7574 22.4733C18.084 21.8935 16.418 21.299 14.7519 20.7118C14.407 20.5871 14.2162 20.3155 14.3483 19.9779C14.5097 19.5596 14.8473 19.7284 15.1409 19.8311C17.6437 20.7559 20.1611 21.6513 22.6565 22.5907C23.5226 22.9137 24.0143 22.3559 24.3152 21.8054C26.0253 18.6935 28.6015 17.732 31.8749 19.0752C31.9996 19.1192 32.1171 19.1632 32.2932 19.244V19.2366Z" fill="black"/>
<path d="M26.9353 22.5687C26.8619 22.5467 27.0087 22.5687 26.9206 22.5981C26.4362 22.7449 30.6417 26.4733 31.016 26.1577C31.2362 25.9742 27.383 22.7595 26.928 22.5614L26.9353 22.5687ZM28.4252 20.8219C28.3592 20.7999 28.4986 20.8219 28.4179 20.8513C27.9261 20.9981 32.139 24.7265 32.5059 24.4109C32.7261 24.2274 28.8729 21.0128 28.4252 20.8146V20.8219ZM41.2619 22.5687C41.2032 22.5467 41.3353 22.5687 41.2619 22.5981C40.7702 22.7449 44.9757 26.4733 45.35 26.1577C45.5702 25.9742 41.717 22.7595 41.2619 22.5614V22.5687ZM42.7592 20.8219C42.6931 20.7999 42.8326 20.8219 42.7518 20.8513C42.2674 20.9981 46.4729 24.7265 46.8399 24.4109C47.0601 24.2274 43.2069 21.0128 42.7592 20.8146V20.8219Z" fill="white"/>
<path d="M29.0274 19.288C28.5724 19.2513 28.1834 19.2293 27.8164 19.2293C27.398 19.2146 27.1925 18.9798 27.1558 18.5834C27.1191 18.1945 27.376 18.0697 27.7063 17.9596C28.3375 17.7394 28.9613 17.9229 29.5558 18.011C30.6861 18.1651 31.8678 17.9669 32.9613 18.4734C33.3283 18.6422 33.5705 18.8183 33.4311 19.2293C33.299 19.611 32.9834 19.611 32.6531 19.5302C31.4788 19.2587 30.2751 19.5963 29.0274 19.288ZM43.288 18.5688C44.5503 18.6348 45.7173 18.2018 46.9063 18.4807C47.1999 18.5541 47.5668 18.5321 47.5522 18.9945C47.5522 19.4495 47.2072 19.5376 46.8549 19.5816C45.4604 19.7431 44.0659 19.8752 42.6788 20.0513C42.2604 20.1027 41.8714 20.0587 41.754 19.6403C41.6292 19.222 42.0476 19.0679 42.3412 18.9064C42.598 18.7523 42.9136 18.6789 43.288 18.5614V18.5688Z" fill="black"/>
</g>
</g>
<defs>
<clipPath id="clip0_419_1334">
<path d="M0 32C0 14.3269 14.3269 0 32 0C49.6731 0 64 14.3269 64 32C64 49.6731 49.6731 64 32 64C14.3269 64 0 49.6731 0 32Z" fill="white"/>
</clipPath>
</defs>
</svg>
