<svg width="402" height="839" viewBox="0 0 402 839" fill="none" xmlns="http://www.w3.org/2000/svg">
<rect opacity="0.7" width="402" height="839" fill="black"/>
<rect x="-0.524079" y="0.524079" width="201.952" height="45.9518" rx="22.9759" transform="matrix(-1 0 0 1 305.952 682)" fill="#FE0A58" stroke="#FE0A58" stroke-width="1.04816"/>
<path d="M207.394 697.392V705.27H205.839V697.392H207.394ZM195.521 701.47C195.529 699.456 197.183 698.055 199.435 698.063C201.679 698.055 203.333 699.456 203.333 701.47C203.333 703.476 201.679 704.877 199.435 704.86C197.183 704.877 195.529 703.476 195.521 701.47ZM197.044 701.47C197.036 702.739 198.043 703.583 199.435 703.583C200.811 703.583 201.81 702.739 201.81 701.47C201.81 700.217 200.811 699.365 199.435 699.374C198.043 699.365 197.036 700.217 197.044 701.47ZM197.797 711.886V705.974H199.32V707.628H205.855V705.974H207.394V711.886H197.797ZM199.32 710.609H205.855V708.856H199.32V710.609ZM214.863 700.209C214.863 701.707 216.255 703.091 218.466 703.583L217.794 704.778C216.066 704.369 214.781 703.435 214.117 702.215C213.454 703.574 212.119 704.606 210.326 705.073L209.638 703.861C211.882 703.296 213.323 701.855 213.323 700.209V700.078H210.13V698.833H213.323V697.343H214.879V698.833H218.056V700.078H214.863V700.209ZM211.767 706.989V705.777H221.25V709.364H213.323V710.707H221.758V711.919H211.8V708.218H219.71V706.989H211.767ZM219.694 705.106V697.392H221.25V700.553H223.379V701.847H221.25V705.106H219.694Z" fill="white"/>
<path d="M176.566 695.287C176.054 694.775 175.223 694.775 174.712 695.287L169.798 700.2C169.286 700.712 169.286 701.543 169.798 702.055L170.453 702.71C170.965 703.222 171.796 703.222 172.308 702.71L172.472 702.546L176.845 706.915L176.681 707.079C176.169 707.591 176.169 708.422 176.681 708.934L177.336 709.589C177.848 710.101 178.679 710.101 179.191 709.589L184.104 704.676C184.616 704.164 184.616 703.333 184.104 702.821L183.449 702.166C182.937 701.654 182.106 701.654 181.594 702.166L181.43 702.329L177.058 697.957L177.221 697.793C177.733 697.281 177.733 696.45 177.221 695.938L176.566 695.283V695.287ZM170.343 707.079C169.831 706.567 169 706.567 168.488 707.079L163.902 711.665C163.391 712.176 163.391 713.008 163.902 713.519L165.868 715.485C166.379 715.996 167.211 715.996 167.722 715.485L172.308 710.899C172.82 710.387 172.82 709.556 172.308 709.044L172.251 708.987L174.658 706.584L172.804 704.729L170.4 707.132L170.343 707.075V707.079Z" fill="white"/>
<path d="M141.18 486.719V495.812H134.633V486.719H141.18ZM136.086 494.609H139.711V487.891H136.086V494.609ZM143.523 499.328V485.328H145.008V490.812H147.258V492.062H145.008V499.328H143.523ZM154.305 485.625C157.375 485.617 159.297 486.617 159.305 488.312C159.297 489.977 157.375 490.961 154.305 490.953C151.242 490.961 149.297 489.977 149.305 488.312C149.297 486.617 151.242 485.617 154.305 485.625ZM147.93 493.234V492.031H160.695V493.234H147.93ZM149.461 499.156V494.484H159.133V499.156H149.461ZM150.836 488.312C150.828 489.242 152.148 489.789 154.305 489.797C156.445 489.789 157.781 489.242 157.773 488.312C157.781 487.344 156.445 486.789 154.305 486.797C152.148 486.789 150.828 487.344 150.836 488.312ZM150.93 497.953H157.695V495.672H150.93V497.953ZM173.805 485.328V499.328H172.383V485.328H173.805ZM161.914 491.375C161.914 488.344 163.102 486.445 164.93 486.453C166.633 486.445 167.781 488.062 167.953 490.688H169.539V485.594H170.961V498.641H169.539V491.891H167.961C167.828 494.625 166.664 496.32 164.93 496.312C163.102 496.32 161.914 494.414 161.914 491.375ZM163.289 491.375C163.289 493.602 163.922 494.914 164.93 494.906C165.961 494.914 166.602 493.602 166.602 491.375C166.602 489.141 165.961 487.836 164.93 487.844C163.922 487.836 163.289 489.141 163.289 491.375ZM192.273 492.344V493.531H179.492V492.344H192.273ZM181.086 490.938V485.906H190.695V487.094H182.57V489.719H190.836V490.938H181.086ZM181.102 499.031V494.906H182.57V497.812H190.93V499.031H181.102ZM204.227 485.328V490.75H206.477V491.969H204.227V499.359H202.742V485.328H204.227ZM193.914 495.875V486.672H200.461V487.875H195.398V494.641C197.75 494.633 199.508 494.531 201.508 494.172L201.695 495.422C199.5 495.812 197.641 495.883 195.039 495.875H193.914ZM214.289 486.516V487.703H217.336V485.344H218.82V495.547H217.336V491.922H214.289V493.141H207.789V486.516H214.289ZM209.258 491.969H212.836V487.719H209.258V491.969ZM209.68 499.031V494.609H211.18V497.828H219.133V499.031H209.68ZM214.289 490.703H217.336V488.922H214.289V490.703ZM236.508 485.953V487.141H232.25C232.375 488.555 234.391 489.766 236.992 490.031L236.445 491.188C234.023 490.922 232.023 489.883 231.258 488.383C230.492 489.883 228.5 490.922 226.086 491.188L225.555 490.031C228.125 489.742 230.148 488.547 230.266 487.141H226.055V485.953H236.508ZM224.883 493.219V492.016H237.68V493.219H224.883ZM226.305 495.719V494.516H236.086V499.328H234.586V495.719H226.305ZM243.852 488.891C243.836 491.445 245.383 494.023 247.555 494.984L246.664 496.156C245.055 495.391 243.781 493.82 243.125 491.906C242.477 493.961 241.188 495.648 239.508 496.469L238.602 495.219C240.805 494.242 242.352 491.562 242.352 488.891V486.5H243.852V488.891ZM248.82 499.359V485.328H250.305V499.359H248.82ZM268.055 485.328V492.844H266.57V485.328H268.055ZM256.727 489.219C256.734 487.297 258.312 485.961 260.461 485.969C262.602 485.961 264.18 487.297 264.18 489.219C264.18 491.133 262.602 492.469 260.461 492.453C258.312 492.469 256.734 491.133 256.727 489.219ZM258.18 489.219C258.172 490.43 259.133 491.234 260.461 491.234C261.773 491.234 262.727 490.43 262.727 489.219C262.727 488.023 261.773 487.211 260.461 487.219C259.133 487.211 258.172 488.023 258.18 489.219ZM258.898 499.156V493.516H260.352V495.094H266.586V493.516H268.055V499.156H258.898ZM260.352 497.938H266.586V496.266H260.352V497.938ZM275.18 488.016C275.18 489.445 276.508 490.766 278.617 491.234L277.977 492.375C276.328 491.984 275.102 491.094 274.469 489.93C273.836 491.227 272.562 492.211 270.852 492.656L270.195 491.5C272.336 490.961 273.711 489.586 273.711 488.016V487.891H270.664V486.703H273.711V485.281H275.195V486.703H278.227V487.891H275.18V488.016ZM272.227 494.484V493.328H281.273V496.75H273.711V498.031H281.758V499.188H272.258V495.656H279.805V494.484H272.227ZM279.789 492.688V485.328H281.273V488.344H283.305V489.578H281.273V492.688H279.789ZM291.023 487.641V488.844H284.07V487.641H286.82V485.734H288.289V487.641H291.023ZM284.523 492.906C284.516 491.023 285.797 489.688 287.555 489.688C289.328 489.688 290.594 491.023 290.602 492.906C290.594 494.82 289.328 496.164 287.555 496.156C285.797 496.164 284.516 494.82 284.523 492.906ZM285.836 492.906C285.828 494.094 286.547 494.891 287.555 494.891C288.562 494.891 289.289 494.094 289.289 492.906C289.289 491.742 288.562 490.93 287.555 490.922C286.547 490.93 285.828 491.742 285.836 492.906ZM291.664 498.672V485.641H293.07V491.156H294.68V485.328H296.086V499.328H294.68V492.375H293.07V498.672H291.664ZM161.398 509.344V517.625H159.914V515.922H156.383V514.703H159.914V513H156.531C155.625 515.25 153.523 516.836 150.492 517.703L149.898 516.547C153.211 515.602 155.148 513.82 155.414 511.562H150.617V510.344H157.023C157.023 510.859 156.969 511.359 156.875 511.828H159.914V509.344H161.398ZM152.07 520.516C152.07 518.82 153.914 517.789 156.789 517.781C159.625 517.789 161.484 518.82 161.492 520.516C161.484 522.219 159.625 523.266 156.789 523.266C153.914 523.266 152.07 522.219 152.07 520.516ZM153.539 520.516C153.539 521.5 154.789 522.07 156.789 522.078C158.75 522.07 160 521.5 160.008 520.516C160 519.516 158.75 518.945 156.789 518.953C154.789 518.945 153.539 519.516 153.539 520.516ZM175.602 509.328V523.328H174.18V516.031H172.445V522.641H171.039V509.594H172.445V514.812H174.18V509.328H175.602ZM164.023 519.641V510.906H169.461V519.641H164.023ZM165.43 518.453H168.07V512.078H165.43V518.453ZM189.43 509.328V523.328H188.008V509.328H189.43ZM177.539 515.375C177.539 512.344 178.727 510.445 180.555 510.453C182.258 510.445 183.406 512.062 183.578 514.688H185.164V509.594H186.586V522.641H185.164V515.891H183.586C183.453 518.625 182.289 520.32 180.555 520.312C178.727 520.32 177.539 518.414 177.539 515.375ZM178.914 515.375C178.914 517.602 179.547 518.914 180.555 518.906C181.586 518.914 182.227 517.602 182.227 515.375C182.227 513.141 181.586 511.836 180.555 511.844C179.547 511.836 178.914 513.141 178.914 515.375ZM200.023 512.219C200.023 513.836 201.289 515.336 203.43 515.953L202.742 517.109C201.125 516.641 199.93 515.648 199.305 514.375C198.688 515.773 197.469 516.859 195.805 517.375L195.086 516.219C197.227 515.586 198.555 513.992 198.555 512.219V512.078H195.508V510.891H198.555V509.266H200.039V510.891H203.07V512.078H200.023V512.219ZM197.18 523.156V518.219H206.117V523.156H197.18ZM198.633 521.953H204.648V519.391H198.633V521.953ZM204.633 517.594V509.328H206.117V512.797H208.148V514.031H206.117V517.594H204.633ZM212.742 510.375C214.023 510.383 215.07 511.109 215.688 512.375H219.148V509.328H220.617V523.359H219.148V517.984H215.789C215.188 519.391 214.094 520.211 212.742 520.203C210.656 520.211 209.18 518.305 209.195 515.281C209.18 512.289 210.656 510.383 212.742 510.375ZM210.602 515.281C210.609 517.508 211.477 518.875 212.742 518.875C214.008 518.875 214.875 517.508 214.883 515.281C214.875 513.086 214.008 511.711 212.742 511.703C211.477 511.711 210.609 513.086 210.602 515.281ZM216.109 513.594C216.219 514.109 216.289 514.672 216.289 515.281C216.289 515.812 216.242 516.305 216.148 516.766H219.148V513.594H216.109ZM229.695 511.641V512.844H222.742V511.641H225.492V509.734H226.961V511.641H229.695ZM223.195 516.906C223.188 515.023 224.469 513.688 226.227 513.688C228 513.688 229.266 515.023 229.273 516.906C229.266 518.82 228 520.164 226.227 520.156C224.469 520.164 223.188 518.82 223.195 516.906ZM224.508 516.906C224.5 518.094 225.219 518.891 226.227 518.891C227.234 518.891 227.961 518.094 227.961 516.906C227.961 515.742 227.234 514.93 226.227 514.922C225.219 514.93 224.5 515.742 224.508 516.906ZM230.336 522.672V509.641H231.742V515.156H233.352V509.328H234.758V523.328H233.352V516.375H231.742V522.672H230.336ZM249.414 520.359V521.594H236.602V520.359H242.242V517.484H238.07V510.281H239.555V512.688H246.43V510.281H247.898V517.484H243.711V520.359H249.414ZM239.555 516.281H246.43V513.891H239.555V516.281ZM254.695 513.156C254.695 515.391 255.633 517.773 257.508 518.922L256.68 520.062C255.367 519.273 254.484 517.875 254 516.258C253.492 518.031 252.523 519.547 251.164 520.375L250.242 519.266C252.219 518.078 253.266 515.602 253.258 513.219V510.609H254.695V513.156ZM255.992 515.484V514.25H258.164V509.594H259.57V522.641H258.164V515.484H255.992ZM261.055 523.328V509.328H262.477V523.328H261.055ZM277.07 520.344V521.578H264.258V520.344H267.32V516.688C266.172 516.055 265.469 515.055 265.477 513.797C265.469 511.594 267.633 510.148 270.633 510.141C273.641 510.148 275.805 511.594 275.805 513.797C275.805 515.031 275.133 516.023 274.008 516.656V520.344H277.07ZM266.914 513.797C266.914 515.297 268.438 516.273 270.633 516.281C272.812 516.273 274.359 515.297 274.367 513.797C274.359 512.289 272.812 511.328 270.633 511.328C268.438 511.328 266.914 512.289 266.914 513.797ZM268.789 520.344H272.508V517.234C271.938 517.367 271.305 517.438 270.633 517.438C269.977 517.438 269.352 517.367 268.789 517.234V520.344ZM279.68 522.109C279.07 522.102 278.562 521.609 278.57 521C278.562 520.391 279.07 519.891 279.68 519.891C280.281 519.891 280.781 520.391 280.789 521C280.781 521.609 280.281 522.102 279.68 522.109Z" fill="white"/>
<path d="M351.21 689.03C351.142 689.578 350.642 689.967 350.094 689.898C349.546 689.83 349.157 689.331 349.226 688.782L350.218 688.906L351.21 689.03ZM320.124 646.065C322.054 648.291 321.815 651.659 319.59 653.589C317.364 655.519 313.996 655.279 312.066 653.054C310.136 650.829 310.376 647.46 312.601 645.53C314.826 643.601 318.195 643.84 320.124 646.065ZM350.218 688.906L349.226 688.782C352.307 664.038 332.354 647.361 316.289 650.541L316.095 649.56L315.901 648.579C333.546 645.086 354.428 663.188 351.21 689.03L350.218 688.906Z" fill="#FE0A58"/>
<path d="M115.83 707.421C116.218 707.814 116.851 707.817 117.244 707.429C117.636 707.04 117.64 706.407 117.251 706.015L116.54 706.718L115.83 707.421ZM115.766 516.036C115.695 518.98 118.025 521.424 120.97 521.495C123.915 521.565 126.359 519.235 126.429 516.291C126.5 513.346 124.17 510.902 121.225 510.831C118.28 510.761 115.836 513.091 115.766 516.036ZM116.54 706.718L117.251 706.015C85.8441 674.277 74.1458 634.417 76.7078 598.781C79.2721 563.114 96.1032 531.802 121.599 517.028L121.098 516.163L120.596 515.298C94.3818 530.487 77.3112 562.497 74.7129 598.638C72.1123 634.811 83.9906 675.247 115.83 707.421L116.54 706.718Z" fill="#FE0A58"/>
<path d="M136.852 625.375C138.945 625.383 140.438 627.289 140.445 630.281C140.438 633.305 138.945 635.211 136.852 635.203C134.758 635.211 133.266 633.305 133.273 630.281C133.266 627.289 134.758 625.383 136.852 625.375ZM134.695 630.281C134.688 632.508 135.578 633.875 136.852 633.875C138.148 633.875 139.023 632.508 139.023 630.281C139.023 628.086 138.148 626.711 136.852 626.703C135.578 626.711 134.688 628.086 134.695 630.281ZM142.523 638.328V624.328H144.008V629.812H146.258V631.062H144.008V638.328H142.523ZM152.117 626.844C152.117 628.641 153.453 630.367 155.617 631.047L154.852 632.203C153.242 631.672 152.023 630.57 151.391 629.164C150.758 630.68 149.516 631.883 147.852 632.469L147.086 631.328C149.266 630.57 150.609 628.742 150.617 626.844V626.453H147.477V625.25H155.195V626.453H152.117V626.844ZM149.055 634.688V633.484H158.539V638.328H157.055V634.688H149.055ZM157.055 632.781V624.328H158.539V632.781H157.055ZM175.992 625.672V627.047C175.984 628.773 175.984 630.711 175.461 633.578L173.961 633.422C174.5 630.711 174.5 628.727 174.508 627.047V626.875H166.008V625.672H175.992ZM164.664 636.438V635.203H169.523V630.266H170.992V635.203H177.43V636.438H164.664ZM185.883 625.516V632.094H179.227V625.516H185.883ZM180.68 630.906H184.414V626.719H180.68V630.906ZM180.945 637.906V633.406H182.445V636.688H190.523V637.906H180.945ZM188.617 634.375V624.344H190.102V634.375H188.617ZM200.477 628.812V630.016H197.742V631.789C198.984 631.727 200.219 631.641 201.367 631.516L201.477 632.609C198.492 633.016 195.219 633.102 192.586 633.094L192.383 631.906C193.578 631.898 194.906 631.883 196.273 631.844V630.016H193.633V625.219H200.352V626.422H195.117V628.812H200.477ZM194.695 638.031V634.078H196.18V636.828H204.367V638.031H194.695ZM202.445 634.828V624.328H203.93V634.828H202.445ZM217.055 624.328V629.75H219.305V630.969H217.055V638.359H215.57V624.328H217.055ZM206.742 634.875V625.672H213.289V626.875H208.227V633.641C210.578 633.633 212.336 633.531 214.336 633.172L214.523 634.422C212.328 634.812 210.469 634.883 207.867 634.875H206.742ZM227.117 625.516V626.703H230.164V624.344H231.648V634.547H230.164V630.922H227.117V632.141H220.617V625.516H227.117ZM222.086 630.969H225.664V626.719H222.086V630.969ZM222.508 638.031V633.609H224.008V636.828H231.961V638.031H222.508ZM227.117 629.703H230.164V627.922H227.117V629.703ZM249.352 624.344V638.328H247.883V624.344H249.352ZM237.664 631.906C240.414 631.891 243.883 631.875 246.945 631.547L247.023 632.641C245.727 632.828 244.406 632.945 243.102 633.023V637.891H241.617V633.086C240.281 633.133 239 633.141 237.836 633.141L237.664 631.906ZM238.961 630.234V625.109H245.758V626.297H240.445V629.016H245.945V630.234H238.961ZM264.352 635.406V636.656H251.539V635.406H257.18V632.953H253.102V628.5H261.32V626.531H253.07V625.312H262.789V629.688H254.57V631.734H263.117V632.953H258.648V635.406H264.352ZM282.086 635.359V636.594H269.273V635.359H274.914V632.484H270.742V625.281H272.227V627.688H279.102V625.281H280.57V632.484H276.383V635.359H282.086ZM272.227 631.281H279.102V628.891H272.227V631.281ZM295.086 624.328V638.328H293.664V631.156H291.867V637.609H290.477V624.609H291.867V629.938H293.664V624.328H295.086ZM283.758 634.766V625.984H285.242V633.461C286.531 633.445 287.945 633.344 289.539 633.031L289.695 634.328C287.773 634.672 286.172 634.773 284.664 634.766H283.758ZM152.938 653.828V655.047H150.766V662.312H149.281V648.328H150.766V653.828H152.938ZM140.391 658.797V649.688H141.859V657.562C143.812 657.555 145.852 657.391 148.078 656.938L148.25 658.188C145.852 658.664 143.648 658.805 141.547 658.797H140.391ZM166.453 654.812V656.016H160.797V657.359C163.359 657.5 164.883 658.359 164.891 659.828C164.883 661.414 163.07 662.305 160.062 662.297C157.016 662.305 155.203 661.414 155.203 659.828C155.203 658.359 156.727 657.492 159.328 657.359V656.016H153.688V654.812H166.453ZM154.359 652.906C156.875 652.648 158.859 651.508 159.062 650.156H154.859V648.969H165.312V650.156H161.062C161.266 651.516 163.234 652.648 165.797 652.906L165.266 654.078C162.836 653.797 160.828 652.773 160.07 651.289C159.297 652.773 157.305 653.797 154.875 654.078L154.359 652.906ZM156.703 659.828C156.695 660.68 157.922 661.172 160.062 661.156C162.172 661.172 163.406 660.68 163.406 659.828C163.406 658.961 162.172 658.492 160.062 658.484C157.922 658.492 156.695 658.961 156.703 659.828ZM179.562 648.328V662.328H178.141V648.328H179.562ZM167.672 654.375C167.672 651.344 168.859 649.445 170.688 649.453C172.391 649.445 173.539 651.062 173.711 653.688H175.297V648.594H176.719V661.641H175.297V654.891H173.719C173.586 657.625 172.422 659.32 170.688 659.312C168.859 659.32 167.672 657.414 167.672 654.375ZM169.047 654.375C169.047 656.602 169.68 657.914 170.688 657.906C171.719 657.914 172.359 656.602 172.359 654.375C172.359 652.141 171.719 650.836 170.688 650.844C169.68 650.836 169.047 652.141 169.047 654.375ZM196.156 648.328V653.75H198.406V654.969H196.156V662.359H194.672V648.328H196.156ZM185.844 658.875V649.672H192.391V650.875H187.328V657.641C189.68 657.633 191.438 657.531 193.438 657.172L193.625 658.422C191.43 658.812 189.57 658.883 186.969 658.875H185.844ZM204.219 651.891C204.203 654.445 205.75 657.023 207.922 657.984L207.031 659.156C205.422 658.391 204.148 656.82 203.492 654.906C202.844 656.961 201.555 658.648 199.875 659.469L198.969 658.219C201.172 657.242 202.719 654.562 202.719 651.891V649.5H204.219V651.891ZM209.188 662.359V648.328H210.672V662.359H209.188ZM227.828 648.344V652.5H229.828V653.719H227.828V657.766H226.344V648.344H227.828ZM216.719 656.203C217.805 656.203 219.062 656.203 220.375 656.172V655.227C218.781 655.047 217.766 654.297 217.781 653.172C217.766 651.891 219.102 651.094 221.109 651.109C223.117 651.094 224.43 651.891 224.438 653.172C224.43 654.289 223.438 655.039 221.859 655.227V656.117C223.109 656.055 224.375 655.953 225.547 655.781L225.672 656.844C222.664 657.367 219.344 657.391 216.875 657.391L216.719 656.203ZM217.078 650.641V649.531H220.375V648.219H221.859V649.531H225.156V650.641H217.078ZM218.469 659.578V658.422H227.828V662.328H226.344V659.578H218.469ZM219.188 653.172C219.188 653.828 219.914 654.258 221.109 654.25C222.289 654.258 223.023 653.828 223.016 653.172C223.023 652.5 222.289 652.109 221.109 652.125C219.914 652.109 219.188 652.5 219.188 653.172ZM242.25 648.344V658.516H240.766V648.344H242.25ZM230.922 652.75C230.93 650.727 232.539 649.289 234.656 649.281C236.766 649.289 238.375 650.727 238.375 652.75C238.375 654.805 236.766 656.234 234.656 656.234C232.539 656.234 230.93 654.805 230.922 652.75ZM232.375 652.75C232.367 654.07 233.352 654.938 234.656 654.938C235.938 654.938 236.922 654.07 236.922 652.75C236.922 651.461 235.938 650.578 234.656 650.578C233.352 650.578 232.367 651.461 232.375 652.75ZM233.094 662.031V657.484H234.594V660.828H242.672V662.031H233.094ZM255.375 648.328V654H257.625V655.234H255.375V662.328H253.906V648.328H255.375ZM244.391 651.734V650.516H247.844V648.516H249.328V650.516H252.688V651.734H244.391ZM245.109 656.016C245.109 654.109 246.578 652.766 248.594 652.766C250.602 652.766 252.07 654.109 252.078 656.016C252.07 657.938 250.602 659.273 248.594 659.281C246.578 659.273 245.109 657.938 245.109 656.016ZM246.531 656.016C246.523 657.234 247.398 658.047 248.594 658.031C249.781 658.047 250.648 657.234 250.656 656.016C250.648 654.82 249.781 653.992 248.594 653.984C247.398 653.992 246.523 654.82 246.531 656.016ZM262.562 652.156C262.562 654.391 263.5 656.773 265.375 657.922L264.547 659.062C263.234 658.273 262.352 656.875 261.867 655.258C261.359 657.031 260.391 658.547 259.031 659.375L258.109 658.266C260.086 657.078 261.133 654.602 261.125 652.219V649.609H262.562V652.156ZM263.859 654.484V653.25H266.031V648.594H267.438V661.641H266.031V654.484H263.859ZM268.922 662.328V648.328H270.344V662.328H268.922ZM284.938 659.344V660.578H272.125V659.344H275.188V655.688C274.039 655.055 273.336 654.055 273.344 652.797C273.336 650.594 275.5 649.148 278.5 649.141C281.508 649.148 283.672 650.594 283.672 652.797C283.672 654.031 283 655.023 281.875 655.656V659.344H284.938ZM274.781 652.797C274.781 654.297 276.305 655.273 278.5 655.281C280.68 655.273 282.227 654.297 282.234 652.797C282.227 651.289 280.68 650.328 278.5 650.328C276.305 650.328 274.781 651.289 274.781 652.797ZM276.656 659.344H280.375V656.234C279.805 656.367 279.172 656.438 278.5 656.438C277.844 656.438 277.219 656.367 276.656 656.234V659.344ZM287.547 661.109C286.938 661.102 286.43 660.609 286.438 660C286.43 659.391 286.938 658.891 287.547 658.891C288.148 658.891 288.648 659.391 288.656 660C288.648 660.609 288.148 661.102 287.547 661.109Z" fill="white"/>
<path d="M148.812 347.391V348.172C148.797 349.109 148.797 350.5 148.453 352.312L146.984 352.172C147.289 350.625 147.336 349.492 147.352 348.609H141.75V347.391H148.812ZM140.906 353.516C141.766 353.516 142.742 353.508 143.766 353.484V350.531H145.234V353.438C146.734 353.375 148.281 353.266 149.688 353.062L149.781 354.141C146.859 354.656 143.516 354.711 141.047 354.719L140.906 353.516ZM143.031 360.031V355.891H144.516V358.828H152.547V360.031H143.031ZM150.578 356.844V346.328H152.094V350.781H154.016V352.031H152.094V356.844H150.578ZM166.453 346.344V354.266H164.969V346.344H166.453ZM154.906 352.781C157.094 352.047 158.414 350.188 158.422 348.234V346.875H159.938V348.234C159.93 350.125 161.281 351.828 163.406 352.547L162.672 353.688C161.047 353.148 159.82 352.047 159.188 350.609C158.562 352.148 157.32 353.367 155.641 353.953L154.906 352.781ZM157.25 360.156V355.016H166.453V360.156H157.25ZM158.719 358.953H165V356.203H158.719V358.953ZM175.562 354.531V356.156H177.75V354.531H179.125V360.156H174.172V354.531H175.562ZM172.781 350.156C172.773 348.242 174.312 346.922 176.453 346.922C178.297 346.922 179.727 347.961 180.031 349.531H182.766V346.328H184.25V353.75H182.766V350.75H180.039C179.75 352.352 178.312 353.414 176.453 353.406C174.312 353.414 172.773 352.086 172.781 350.156ZM174.203 350.156C174.195 351.367 175.133 352.195 176.453 352.203C177.75 352.195 178.672 351.367 178.672 350.156C178.672 348.961 177.75 348.148 176.453 348.156C175.133 348.148 174.195 348.961 174.203 350.156ZM175.562 359H177.75V357.281H175.562V359ZM179.203 359.141C180.891 358.445 181.719 356.977 181.719 355.578V354.438H183.188V355.578C183.18 357.047 184.008 358.531 185.734 359.141L184.969 360.266C183.703 359.781 182.883 358.867 182.438 357.758C181.977 358.836 181.156 359.766 179.953 360.266L179.203 359.141ZM197.734 350.422V351.609H188.094V346.828H189.562V350.422H197.734ZM186.391 354.562V353.375H199.203V354.562H186.391ZM187.984 360V355.891H189.469V358.781H197.828V360H187.984ZM208.969 348.562C208.961 350.398 210.258 352.109 212.344 352.797L211.547 353.969C210.016 353.43 208.867 352.336 208.258 350.953C207.648 352.523 206.461 353.758 204.828 354.359L204.031 353.172C206.219 352.398 207.484 350.531 207.5 348.438V347.062H208.969V348.562ZM205.922 357.703C205.922 356.062 207.711 355.102 210.625 355.109C213.5 355.102 215.266 356.062 215.266 357.703C215.266 359.359 213.5 360.305 210.625 360.297C207.711 360.305 205.922 359.359 205.922 357.703ZM207.406 357.703C207.398 358.625 208.602 359.125 210.625 359.141C212.633 359.125 213.82 358.625 213.812 357.703C213.82 356.812 212.633 356.281 210.625 356.281C208.602 356.281 207.398 356.812 207.406 357.703ZM213.656 354.781V346.328H215.141V349.844H217.172V351.094H215.141V354.781H213.656ZM230.734 353.031V354.219H225.078V355.719H229.172V360.156H219.5V355.719H223.609V354.219H217.969V353.031H230.734ZM219.141 347.969V346.766H229.531V347.969H227.5V350.641H229.469V351.844H219.203V350.641H221.188V347.969H219.141ZM220.969 358.953H227.734V356.891H220.969V358.953ZM222.656 350.641H226.016V347.969H222.656V350.641ZM244.562 353.641V354.828H231.797V353.641H244.562ZM233.172 349.594C233.164 347.836 235.125 346.789 238.172 346.797C241.203 346.789 243.164 347.836 243.172 349.594C243.164 351.359 241.203 352.43 238.172 352.438C235.125 352.43 233.164 351.359 233.172 349.594ZM233.406 360.031V355.969H234.906V358.828H243.125V360.031H233.406ZM234.703 349.594C234.695 350.633 236.023 351.219 238.172 351.219C240.312 351.219 241.648 350.633 241.641 349.594C241.648 348.594 240.312 347.984 238.172 347.984C236.023 347.984 234.695 348.594 234.703 349.594ZM261.203 355.016V360.156H252.031V355.016H261.203ZM250.359 353.594V347.141H251.828V352.328C253.852 352.32 255.695 352.18 257.688 351.781L257.859 353.031C255.68 353.477 253.703 353.594 251.453 353.594H250.359ZM253.5 358.953H259.75V356.203H253.5V358.953ZM255.875 350.078V348.875H259.719V346.328H261.203V354.375H259.719V350.078H255.875ZM275 346.328V360.328H273.5V346.328H275ZM263.5 356.578C267.219 354.805 269.039 352.281 269.328 349.016H264.172V347.828H270.828C270.828 351.93 269.086 355.477 264.281 357.781L263.5 356.578ZM284.234 347.672V349.625H287.391V346.328H288.859V360.359H287.391V354.672H284.234V356.828H277.734V347.672H284.234ZM279.203 355.641H282.781V348.828H279.203V355.641ZM284.234 353.469H287.391V350.844H284.234V353.469ZM175.586 370.328V384.328H174.18V370.328H175.586ZM163.477 380.281C166.453 378.516 167.875 376.164 168.133 373.281H164.164V372.062H169.602C169.602 372.781 169.547 373.477 169.438 374.156H171.32V370.688H172.727V383.641H171.32V378.875H168.93V377.656H171.32V375.375H169.164C168.484 377.727 166.992 379.773 164.352 381.344L163.477 380.281ZM190.18 377.281V378.5H177.383V377.281H183.023V375.234H184.492V377.281H190.18ZM178.117 374.828C180.797 374.484 183 372.906 183.008 371.141V370.547H184.508V371.141C184.5 372.93 186.695 374.484 189.398 374.828L188.82 376C186.602 375.641 184.641 374.562 183.75 373.016C182.859 374.562 180.898 375.641 178.664 376L178.117 374.828ZM178.805 380.906V379.734H188.586V384.328H187.086V380.906H178.805ZM199.961 371.844C199.953 373.68 201.242 375.297 203.352 375.938L202.586 377.094C201.016 376.578 199.867 375.547 199.258 374.203C198.648 375.742 197.422 376.922 195.742 377.5L195.008 376.312C197.188 375.594 198.484 373.859 198.492 371.844V370.812H199.961V371.844ZM197.07 379.375V378.203H206.117V381.672H198.555V383H206.602V384.188H197.102V380.578H204.648V379.375H197.07ZM204.633 377.609V370.328H206.117V373.281H208.148V374.516H206.117V377.609H204.633ZM216.977 371.688V372.906H215.523V379.617C216.156 379.578 216.781 379.523 217.383 379.453L217.477 380.547C214.648 380.984 211.414 381.031 209.008 381.047L208.852 379.812C209.398 379.812 209.992 379.805 210.617 379.797V372.906H209.258V371.688H216.977ZM212.07 379.773C212.727 379.758 213.398 379.734 214.07 379.703V372.906H212.07V379.773ZM216.773 378.344V377.141H219.148V375.109H216.773V373.891H219.148V370.328H220.617V384.328H219.148V378.344H216.773ZM235.586 381.359V382.594H222.773V381.359H228.414V378.484H224.242V371.281H225.727V373.688H232.602V371.281H234.07V378.484H229.883V381.359H235.586ZM225.727 377.281H232.602V374.891H225.727V377.281ZM240.867 374.156C240.867 376.391 241.805 378.773 243.68 379.922L242.852 381.062C241.539 380.273 240.656 378.875 240.172 377.258C239.664 379.031 238.695 380.547 237.336 381.375L236.414 380.266C238.391 379.078 239.438 376.602 239.43 374.219V371.609H240.867V374.156ZM242.164 376.484V375.25H244.336V370.594H245.742V383.641H244.336V376.484H242.164ZM247.227 384.328V370.328H248.648V384.328H247.227ZM263.242 381.344V382.578H250.43V381.344H253.492V377.688C252.344 377.055 251.641 376.055 251.648 374.797C251.641 372.594 253.805 371.148 256.805 371.141C259.812 371.148 261.977 372.594 261.977 374.797C261.977 376.031 261.305 377.023 260.18 377.656V381.344H263.242ZM253.086 374.797C253.086 376.297 254.609 377.273 256.805 377.281C258.984 377.273 260.531 376.297 260.539 374.797C260.531 373.289 258.984 372.328 256.805 372.328C254.609 372.328 253.086 373.289 253.086 374.797ZM254.961 381.344H258.68V378.234C258.109 378.367 257.477 378.438 256.805 378.438C256.148 378.438 255.523 378.367 254.961 378.234V381.344ZM265.852 383.109C265.242 383.102 264.734 382.609 264.742 382C264.734 381.391 265.242 380.891 265.852 380.891C266.453 380.891 266.953 381.391 266.961 382C266.953 382.609 266.453 383.102 265.852 383.109Z" fill="white"/>
<circle cx="274.739" cy="285.139" r="13.113" stroke="#FE0A58" stroke-width="4"/>
<path d="M279.514 313.127L287.409 314.604L273.476 290.472C272.813 289.323 272.633 287.958 272.977 286.677C273.32 285.396 274.158 284.303 275.307 283.64C276.456 282.977 277.821 282.797 279.102 283.14C280.383 283.484 281.476 284.322 282.139 285.471L289.641 298.465L297.72 295.378C302.907 293.337 305.5 292.318 307.761 292.353C311.5 292.415 314.954 293.751 317.06 297.399C318.526 299.938 318.882 302.007 320.001 307.466C320.709 310.932 321.064 312.661 320.938 314.268C320.732 316.912 319.612 319.401 317.771 321.311C316.652 322.471 315.123 323.354 312.059 325.123L309.46 326.624C305.391 328.973 303.354 330.149 301.108 330.449C300.706 330.502 300.301 330.534 299.896 330.545C297.633 330.604 295.437 329.766 291.045 328.088L276.824 322.656C275.67 322.208 274.725 321.347 274.172 320.24C273.619 319.133 273.499 317.859 273.835 316.668C274.171 315.477 274.94 314.454 275.99 313.799C277.04 313.144 278.296 312.905 279.514 313.127Z" fill="#020202" stroke="white" stroke-width="4.25" stroke-linecap="round" stroke-linejoin="round"/>
<path d="M131.099 283.725C130.318 284.506 130.318 285.772 131.099 286.553L143.827 299.281C144.608 300.062 145.874 300.062 146.655 299.281C147.436 298.5 147.436 297.234 146.655 296.453L135.341 285.139L146.655 273.825C147.436 273.044 147.436 271.778 146.655 270.997C145.874 270.216 144.608 270.216 143.827 270.997L131.099 283.725ZM261.626 285.139V283.139H132.513V285.139V287.139H261.626V285.139Z" fill="url(#paint0_linear_0_1)"/>
<path d="M134.026 272.026L121.417 285.139L134.026 298.252" stroke="#FF2395" stroke-opacity="0.5" stroke-width="4" stroke-linecap="round"/>
<path d="M122.93 272.026L110.321 285.139L122.93 298.252" stroke="#FF2395" stroke-opacity="0.25" stroke-width="4" stroke-linecap="round"/>
<path d="M360.267 712.717C362.034 711.165 362.207 708.475 360.655 706.709L360.033 706L359.78 707.414C360.914 708.704 360.801 710.722 359.511 711.856L356.28 715.914L354.433 717.844L360.267 712.717Z" fill="white"/>
<path d="M350 702.163L345.896 701.304C343.904 700.887 341.952 702.164 341.535 704.156L339.755 712.664C339.338 714.656 340.615 716.609 342.606 717.025L348.26 718.208C349.613 718.491 350.94 717.624 351.223 716.271" stroke="white" stroke-width="1.14611"/>
<path d="M351.223 716.271L353.245 706.606C353.662 704.615 352.385 702.662 350.394 702.245L350 702.163" stroke="white" stroke-width="1.14611"/>
<rect x="-0.764074" y="0.764074" width="9.93296" height="15.2815" rx="2.92023" transform="matrix(-1 0 0 1 348.396 701.211)" fill="black" stroke="white" stroke-width="1.52815"/>
<path d="M346.258 698.764C346.258 696.472 349.492 692.976 354.663 695.326C359.833 697.676 357.861 700.737 357.35 702.01" stroke="white" stroke-width="1.52815"/>
<path d="M350.5 688.156C361.516 688.157 370.443 697.043 370.443 708C370.443 718.957 361.516 727.843 350.5 727.843C339.483 727.843 330.556 718.957 330.556 708C330.556 697.043 339.483 688.156 350.5 688.156Z" stroke="white" stroke-width="0.913043"/>
<path d="M355.514 700.754L357.114 702.996L359.369 701.778" stroke="white" stroke-width="1.52815" stroke-linecap="round"/>
<path d="M353.504 702.921C353.967 702.967 354.424 703.157 354.833 703.5L356.903 705.236C358.183 706.311 358.497 708.487 357.604 710.097L354.166 716.295C353.576 717.358 352.608 717.908 351.649 717.85C352.304 717.287 352.811 716.445 353.034 715.421L354.78 707.398C355.159 705.655 354.608 703.894 353.504 702.921Z" fill="white"/>
<path d="M141.18 486.719V495.812H134.633V486.719H141.18ZM136.086 494.609H139.711V487.891H136.086V494.609ZM143.523 499.328V485.328H145.008V490.812H147.258V492.062H145.008V499.328H143.523ZM154.305 485.625C157.375 485.617 159.297 486.617 159.305 488.312C159.297 489.977 157.375 490.961 154.305 490.953C151.242 490.961 149.297 489.977 149.305 488.312C149.297 486.617 151.242 485.617 154.305 485.625ZM147.93 493.234V492.031H160.695V493.234H147.93ZM149.461 499.156V494.484H159.133V499.156H149.461ZM150.836 488.312C150.828 489.242 152.148 489.789 154.305 489.797C156.445 489.789 157.781 489.242 157.773 488.312C157.781 487.344 156.445 486.789 154.305 486.797C152.148 486.789 150.828 487.344 150.836 488.312ZM150.93 497.953H157.695V495.672H150.93V497.953ZM173.805 485.328V499.328H172.383V485.328H173.805ZM161.914 491.375C161.914 488.344 163.102 486.445 164.93 486.453C166.633 486.445 167.781 488.062 167.953 490.688H169.539V485.594H170.961V498.641H169.539V491.891H167.961C167.828 494.625 166.664 496.32 164.93 496.312C163.102 496.32 161.914 494.414 161.914 491.375ZM163.289 491.375C163.289 493.602 163.922 494.914 164.93 494.906C165.961 494.914 166.602 493.602 166.602 491.375C166.602 489.141 165.961 487.836 164.93 487.844C163.922 487.836 163.289 489.141 163.289 491.375ZM192.273 492.344V493.531H179.492V492.344H192.273ZM181.086 490.938V485.906H190.695V487.094H182.57V489.719H190.836V490.938H181.086ZM181.102 499.031V494.906H182.57V497.812H190.93V499.031H181.102ZM204.227 485.328V490.75H206.477V491.969H204.227V499.359H202.742V485.328H204.227ZM193.914 495.875V486.672H200.461V487.875H195.398V494.641C197.75 494.633 199.508 494.531 201.508 494.172L201.695 495.422C199.5 495.812 197.641 495.883 195.039 495.875H193.914ZM214.289 486.516V487.703H217.336V485.344H218.82V495.547H217.336V491.922H214.289V493.141H207.789V486.516H214.289ZM209.258 491.969H212.836V487.719H209.258V491.969ZM209.68 499.031V494.609H211.18V497.828H219.133V499.031H209.68ZM214.289 490.703H217.336V488.922H214.289V490.703ZM236.508 485.953V487.141H232.25C232.375 488.555 234.391 489.766 236.992 490.031L236.445 491.188C234.023 490.922 232.023 489.883 231.258 488.383C230.492 489.883 228.5 490.922 226.086 491.188L225.555 490.031C228.125 489.742 230.148 488.547 230.266 487.141H226.055V485.953H236.508ZM224.883 493.219V492.016H237.68V493.219H224.883ZM226.305 495.719V494.516H236.086V499.328H234.586V495.719H226.305ZM243.852 488.891C243.836 491.445 245.383 494.023 247.555 494.984L246.664 496.156C245.055 495.391 243.781 493.82 243.125 491.906C242.477 493.961 241.188 495.648 239.508 496.469L238.602 495.219C240.805 494.242 242.352 491.562 242.352 488.891V486.5H243.852V488.891ZM248.82 499.359V485.328H250.305V499.359H248.82ZM268.055 485.328V492.844H266.57V485.328H268.055ZM256.727 489.219C256.734 487.297 258.312 485.961 260.461 485.969C262.602 485.961 264.18 487.297 264.18 489.219C264.18 491.133 262.602 492.469 260.461 492.453C258.312 492.469 256.734 491.133 256.727 489.219ZM258.18 489.219C258.172 490.43 259.133 491.234 260.461 491.234C261.773 491.234 262.727 490.43 262.727 489.219C262.727 488.023 261.773 487.211 260.461 487.219C259.133 487.211 258.172 488.023 258.18 489.219ZM258.898 499.156V493.516H260.352V495.094H266.586V493.516H268.055V499.156H258.898ZM260.352 497.938H266.586V496.266H260.352V497.938ZM275.18 488.016C275.18 489.445 276.508 490.766 278.617 491.234L277.977 492.375C276.328 491.984 275.102 491.094 274.469 489.93C273.836 491.227 272.562 492.211 270.852 492.656L270.195 491.5C272.336 490.961 273.711 489.586 273.711 488.016V487.891H270.664V486.703H273.711V485.281H275.195V486.703H278.227V487.891H275.18V488.016ZM272.227 494.484V493.328H281.273V496.75H273.711V498.031H281.758V499.188H272.258V495.656H279.805V494.484H272.227ZM279.789 492.688V485.328H281.273V488.344H283.305V489.578H281.273V492.688H279.789ZM291.023 487.641V488.844H284.07V487.641H286.82V485.734H288.289V487.641H291.023ZM284.523 492.906C284.516 491.023 285.797 489.688 287.555 489.688C289.328 489.688 290.594 491.023 290.602 492.906C290.594 494.82 289.328 496.164 287.555 496.156C285.797 496.164 284.516 494.82 284.523 492.906ZM285.836 492.906C285.828 494.094 286.547 494.891 287.555 494.891C288.562 494.891 289.289 494.094 289.289 492.906C289.289 491.742 288.562 490.93 287.555 490.922C286.547 490.93 285.828 491.742 285.836 492.906ZM291.664 498.672V485.641H293.07V491.156H294.68V485.328H296.086V499.328H294.68V492.375H293.07V498.672H291.664ZM161.398 509.344V517.625H159.914V515.922H156.383V514.703H159.914V513H156.531C155.625 515.25 153.523 516.836 150.492 517.703L149.898 516.547C153.211 515.602 155.148 513.82 155.414 511.562H150.617V510.344H157.023C157.023 510.859 156.969 511.359 156.875 511.828H159.914V509.344H161.398ZM152.07 520.516C152.07 518.82 153.914 517.789 156.789 517.781C159.625 517.789 161.484 518.82 161.492 520.516C161.484 522.219 159.625 523.266 156.789 523.266C153.914 523.266 152.07 522.219 152.07 520.516ZM153.539 520.516C153.539 521.5 154.789 522.07 156.789 522.078C158.75 522.07 160 521.5 160.008 520.516C160 519.516 158.75 518.945 156.789 518.953C154.789 518.945 153.539 519.516 153.539 520.516ZM175.602 509.328V523.328H174.18V516.031H172.445V522.641H171.039V509.594H172.445V514.812H174.18V509.328H175.602ZM164.023 519.641V510.906H169.461V519.641H164.023ZM165.43 518.453H168.07V512.078H165.43V518.453ZM189.43 509.328V523.328H188.008V509.328H189.43ZM177.539 515.375C177.539 512.344 178.727 510.445 180.555 510.453C182.258 510.445 183.406 512.062 183.578 514.688H185.164V509.594H186.586V522.641H185.164V515.891H183.586C183.453 518.625 182.289 520.32 180.555 520.312C178.727 520.32 177.539 518.414 177.539 515.375ZM178.914 515.375C178.914 517.602 179.547 518.914 180.555 518.906C181.586 518.914 182.227 517.602 182.227 515.375C182.227 513.141 181.586 511.836 180.555 511.844C179.547 511.836 178.914 513.141 178.914 515.375ZM200.023 512.219C200.023 513.836 201.289 515.336 203.43 515.953L202.742 517.109C201.125 516.641 199.93 515.648 199.305 514.375C198.688 515.773 197.469 516.859 195.805 517.375L195.086 516.219C197.227 515.586 198.555 513.992 198.555 512.219V512.078H195.508V510.891H198.555V509.266H200.039V510.891H203.07V512.078H200.023V512.219ZM197.18 523.156V518.219H206.117V523.156H197.18ZM198.633 521.953H204.648V519.391H198.633V521.953ZM204.633 517.594V509.328H206.117V512.797H208.148V514.031H206.117V517.594H204.633ZM212.742 510.375C214.023 510.383 215.07 511.109 215.688 512.375H219.148V509.328H220.617V523.359H219.148V517.984H215.789C215.188 519.391 214.094 520.211 212.742 520.203C210.656 520.211 209.18 518.305 209.195 515.281C209.18 512.289 210.656 510.383 212.742 510.375ZM210.602 515.281C210.609 517.508 211.477 518.875 212.742 518.875C214.008 518.875 214.875 517.508 214.883 515.281C214.875 513.086 214.008 511.711 212.742 511.703C211.477 511.711 210.609 513.086 210.602 515.281ZM216.109 513.594C216.219 514.109 216.289 514.672 216.289 515.281C216.289 515.812 216.242 516.305 216.148 516.766H219.148V513.594H216.109ZM229.695 511.641V512.844H222.742V511.641H225.492V509.734H226.961V511.641H229.695ZM223.195 516.906C223.188 515.023 224.469 513.688 226.227 513.688C228 513.688 229.266 515.023 229.273 516.906C229.266 518.82 228 520.164 226.227 520.156C224.469 520.164 223.188 518.82 223.195 516.906ZM224.508 516.906C224.5 518.094 225.219 518.891 226.227 518.891C227.234 518.891 227.961 518.094 227.961 516.906C227.961 515.742 227.234 514.93 226.227 514.922C225.219 514.93 224.5 515.742 224.508 516.906ZM230.336 522.672V509.641H231.742V515.156H233.352V509.328H234.758V523.328H233.352V516.375H231.742V522.672H230.336ZM249.414 520.359V521.594H236.602V520.359H242.242V517.484H238.07V510.281H239.555V512.688H246.43V510.281H247.898V517.484H243.711V520.359H249.414ZM239.555 516.281H246.43V513.891H239.555V516.281ZM254.695 513.156C254.695 515.391 255.633 517.773 257.508 518.922L256.68 520.062C255.367 519.273 254.484 517.875 254 516.258C253.492 518.031 252.523 519.547 251.164 520.375L250.242 519.266C252.219 518.078 253.266 515.602 253.258 513.219V510.609H254.695V513.156ZM255.992 515.484V514.25H258.164V509.594H259.57V522.641H258.164V515.484H255.992ZM261.055 523.328V509.328H262.477V523.328H261.055ZM277.07 520.344V521.578H264.258V520.344H267.32V516.688C266.172 516.055 265.469 515.055 265.477 513.797C265.469 511.594 267.633 510.148 270.633 510.141C273.641 510.148 275.805 511.594 275.805 513.797C275.805 515.031 275.133 516.023 274.008 516.656V520.344H277.07ZM266.914 513.797C266.914 515.297 268.438 516.273 270.633 516.281C272.812 516.273 274.359 515.297 274.367 513.797C274.359 512.289 272.812 511.328 270.633 511.328C268.438 511.328 266.914 512.289 266.914 513.797ZM268.789 520.344H272.508V517.234C271.938 517.367 271.305 517.438 270.633 517.438C269.977 517.438 269.352 517.367 268.789 517.234V520.344ZM279.68 522.109C279.07 522.102 278.562 521.609 278.57 521C278.562 520.391 279.07 519.891 279.68 519.891C280.281 519.891 280.781 520.391 280.789 521C280.781 521.609 280.281 522.102 279.68 522.109Z" fill="white"/>
<path d="M351.21 689.03C351.142 689.578 350.642 689.967 350.094 689.898C349.546 689.83 349.157 689.331 349.226 688.782L350.218 688.906L351.21 689.03ZM320.124 646.065C322.054 648.291 321.815 651.659 319.59 653.589C317.364 655.519 313.996 655.279 312.066 653.054C310.136 650.829 310.376 647.46 312.601 645.53C314.826 643.601 318.195 643.84 320.124 646.065ZM350.218 688.906L349.226 688.782C352.307 664.038 332.354 647.361 316.289 650.541L316.095 649.56L315.901 648.579C333.546 645.086 354.428 663.188 351.21 689.03L350.218 688.906Z" fill="#FE0A58"/>
<path d="M115.83 707.421C116.218 707.814 116.851 707.817 117.244 707.429C117.636 707.04 117.64 706.407 117.251 706.015L116.54 706.718L115.83 707.421ZM115.766 516.036C115.695 518.98 118.025 521.424 120.97 521.495C123.915 521.565 126.359 519.235 126.429 516.291C126.5 513.346 124.17 510.902 121.225 510.831C118.28 510.761 115.836 513.091 115.766 516.036ZM116.54 706.718L117.251 706.015C85.8441 674.277 74.1458 634.417 76.7078 598.781C79.2721 563.114 96.1032 531.802 121.599 517.028L121.098 516.163L120.596 515.298C94.3818 530.487 77.3112 562.497 74.7129 598.638C72.1123 634.811 83.9906 675.247 115.83 707.421L116.54 706.718Z" fill="#FE0A58"/>
<path d="M136.852 625.375C138.945 625.383 140.438 627.289 140.445 630.281C140.438 633.305 138.945 635.211 136.852 635.203C134.758 635.211 133.266 633.305 133.273 630.281C133.266 627.289 134.758 625.383 136.852 625.375ZM134.695 630.281C134.688 632.508 135.578 633.875 136.852 633.875C138.148 633.875 139.023 632.508 139.023 630.281C139.023 628.086 138.148 626.711 136.852 626.703C135.578 626.711 134.688 628.086 134.695 630.281ZM142.523 638.328V624.328H144.008V629.812H146.258V631.062H144.008V638.328H142.523ZM152.117 626.844C152.117 628.641 153.453 630.367 155.617 631.047L154.852 632.203C153.242 631.672 152.023 630.57 151.391 629.164C150.758 630.68 149.516 631.883 147.852 632.469L147.086 631.328C149.266 630.57 150.609 628.742 150.617 626.844V626.453H147.477V625.25H155.195V626.453H152.117V626.844ZM149.055 634.688V633.484H158.539V638.328H157.055V634.688H149.055ZM157.055 632.781V624.328H158.539V632.781H157.055ZM175.992 625.672V627.047C175.984 628.773 175.984 630.711 175.461 633.578L173.961 633.422C174.5 630.711 174.5 628.727 174.508 627.047V626.875H166.008V625.672H175.992ZM164.664 636.438V635.203H169.523V630.266H170.992V635.203H177.43V636.438H164.664ZM185.883 625.516V632.094H179.227V625.516H185.883ZM180.68 630.906H184.414V626.719H180.68V630.906ZM180.945 637.906V633.406H182.445V636.688H190.523V637.906H180.945ZM188.617 634.375V624.344H190.102V634.375H188.617ZM200.477 628.812V630.016H197.742V631.789C198.984 631.727 200.219 631.641 201.367 631.516L201.477 632.609C198.492 633.016 195.219 633.102 192.586 633.094L192.383 631.906C193.578 631.898 194.906 631.883 196.273 631.844V630.016H193.633V625.219H200.352V626.422H195.117V628.812H200.477ZM194.695 638.031V634.078H196.18V636.828H204.367V638.031H194.695ZM202.445 634.828V624.328H203.93V634.828H202.445ZM217.055 624.328V629.75H219.305V630.969H217.055V638.359H215.57V624.328H217.055ZM206.742 634.875V625.672H213.289V626.875H208.227V633.641C210.578 633.633 212.336 633.531 214.336 633.172L214.523 634.422C212.328 634.812 210.469 634.883 207.867 634.875H206.742ZM227.117 625.516V626.703H230.164V624.344H231.648V634.547H230.164V630.922H227.117V632.141H220.617V625.516H227.117ZM222.086 630.969H225.664V626.719H222.086V630.969ZM222.508 638.031V633.609H224.008V636.828H231.961V638.031H222.508ZM227.117 629.703H230.164V627.922H227.117V629.703ZM249.352 624.344V638.328H247.883V624.344H249.352ZM237.664 631.906C240.414 631.891 243.883 631.875 246.945 631.547L247.023 632.641C245.727 632.828 244.406 632.945 243.102 633.023V637.891H241.617V633.086C240.281 633.133 239 633.141 237.836 633.141L237.664 631.906ZM238.961 630.234V625.109H245.758V626.297H240.445V629.016H245.945V630.234H238.961ZM264.352 635.406V636.656H251.539V635.406H257.18V632.953H253.102V628.5H261.32V626.531H253.07V625.312H262.789V629.688H254.57V631.734H263.117V632.953H258.648V635.406H264.352ZM282.086 635.359V636.594H269.273V635.359H274.914V632.484H270.742V625.281H272.227V627.688H279.102V625.281H280.57V632.484H276.383V635.359H282.086ZM272.227 631.281H279.102V628.891H272.227V631.281ZM295.086 624.328V638.328H293.664V631.156H291.867V637.609H290.477V624.609H291.867V629.938H293.664V624.328H295.086ZM283.758 634.766V625.984H285.242V633.461C286.531 633.445 287.945 633.344 289.539 633.031L289.695 634.328C287.773 634.672 286.172 634.773 284.664 634.766H283.758ZM152.938 653.828V655.047H150.766V662.312H149.281V648.328H150.766V653.828H152.938ZM140.391 658.797V649.688H141.859V657.562C143.812 657.555 145.852 657.391 148.078 656.938L148.25 658.188C145.852 658.664 143.648 658.805 141.547 658.797H140.391ZM166.453 654.812V656.016H160.797V657.359C163.359 657.5 164.883 658.359 164.891 659.828C164.883 661.414 163.07 662.305 160.062 662.297C157.016 662.305 155.203 661.414 155.203 659.828C155.203 658.359 156.727 657.492 159.328 657.359V656.016H153.688V654.812H166.453ZM154.359 652.906C156.875 652.648 158.859 651.508 159.062 650.156H154.859V648.969H165.312V650.156H161.062C161.266 651.516 163.234 652.648 165.797 652.906L165.266 654.078C162.836 653.797 160.828 652.773 160.07 651.289C159.297 652.773 157.305 653.797 154.875 654.078L154.359 652.906ZM156.703 659.828C156.695 660.68 157.922 661.172 160.062 661.156C162.172 661.172 163.406 660.68 163.406 659.828C163.406 658.961 162.172 658.492 160.062 658.484C157.922 658.492 156.695 658.961 156.703 659.828ZM179.562 648.328V662.328H178.141V648.328H179.562ZM167.672 654.375C167.672 651.344 168.859 649.445 170.688 649.453C172.391 649.445 173.539 651.062 173.711 653.688H175.297V648.594H176.719V661.641H175.297V654.891H173.719C173.586 657.625 172.422 659.32 170.688 659.312C168.859 659.32 167.672 657.414 167.672 654.375ZM169.047 654.375C169.047 656.602 169.68 657.914 170.688 657.906C171.719 657.914 172.359 656.602 172.359 654.375C172.359 652.141 171.719 650.836 170.688 650.844C169.68 650.836 169.047 652.141 169.047 654.375ZM196.156 648.328V653.75H198.406V654.969H196.156V662.359H194.672V648.328H196.156ZM185.844 658.875V649.672H192.391V650.875H187.328V657.641C189.68 657.633 191.438 657.531 193.438 657.172L193.625 658.422C191.43 658.812 189.57 658.883 186.969 658.875H185.844ZM204.219 651.891C204.203 654.445 205.75 657.023 207.922 657.984L207.031 659.156C205.422 658.391 204.148 656.82 203.492 654.906C202.844 656.961 201.555 658.648 199.875 659.469L198.969 658.219C201.172 657.242 202.719 654.562 202.719 651.891V649.5H204.219V651.891ZM209.188 662.359V648.328H210.672V662.359H209.188ZM227.828 648.344V652.5H229.828V653.719H227.828V657.766H226.344V648.344H227.828ZM216.719 656.203C217.805 656.203 219.062 656.203 220.375 656.172V655.227C218.781 655.047 217.766 654.297 217.781 653.172C217.766 651.891 219.102 651.094 221.109 651.109C223.117 651.094 224.43 651.891 224.438 653.172C224.43 654.289 223.438 655.039 221.859 655.227V656.117C223.109 656.055 224.375 655.953 225.547 655.781L225.672 656.844C222.664 657.367 219.344 657.391 216.875 657.391L216.719 656.203ZM217.078 650.641V649.531H220.375V648.219H221.859V649.531H225.156V650.641H217.078ZM218.469 659.578V658.422H227.828V662.328H226.344V659.578H218.469ZM219.188 653.172C219.188 653.828 219.914 654.258 221.109 654.25C222.289 654.258 223.023 653.828 223.016 653.172C223.023 652.5 222.289 652.109 221.109 652.125C219.914 652.109 219.188 652.5 219.188 653.172ZM242.25 648.344V658.516H240.766V648.344H242.25ZM230.922 652.75C230.93 650.727 232.539 649.289 234.656 649.281C236.766 649.289 238.375 650.727 238.375 652.75C238.375 654.805 236.766 656.234 234.656 656.234C232.539 656.234 230.93 654.805 230.922 652.75ZM232.375 652.75C232.367 654.07 233.352 654.938 234.656 654.938C235.938 654.938 236.922 654.07 236.922 652.75C236.922 651.461 235.938 650.578 234.656 650.578C233.352 650.578 232.367 651.461 232.375 652.75ZM233.094 662.031V657.484H234.594V660.828H242.672V662.031H233.094ZM255.375 648.328V654H257.625V655.234H255.375V662.328H253.906V648.328H255.375ZM244.391 651.734V650.516H247.844V648.516H249.328V650.516H252.688V651.734H244.391ZM245.109 656.016C245.109 654.109 246.578 652.766 248.594 652.766C250.602 652.766 252.07 654.109 252.078 656.016C252.07 657.938 250.602 659.273 248.594 659.281C246.578 659.273 245.109 657.938 245.109 656.016ZM246.531 656.016C246.523 657.234 247.398 658.047 248.594 658.031C249.781 658.047 250.648 657.234 250.656 656.016C250.648 654.82 249.781 653.992 248.594 653.984C247.398 653.992 246.523 654.82 246.531 656.016ZM262.562 652.156C262.562 654.391 263.5 656.773 265.375 657.922L264.547 659.062C263.234 658.273 262.352 656.875 261.867 655.258C261.359 657.031 260.391 658.547 259.031 659.375L258.109 658.266C260.086 657.078 261.133 654.602 261.125 652.219V649.609H262.562V652.156ZM263.859 654.484V653.25H266.031V648.594H267.438V661.641H266.031V654.484H263.859ZM268.922 662.328V648.328H270.344V662.328H268.922ZM284.938 659.344V660.578H272.125V659.344H275.188V655.688C274.039 655.055 273.336 654.055 273.344 652.797C273.336 650.594 275.5 649.148 278.5 649.141C281.508 649.148 283.672 650.594 283.672 652.797C283.672 654.031 283 655.023 281.875 655.656V659.344H284.938ZM274.781 652.797C274.781 654.297 276.305 655.273 278.5 655.281C280.68 655.273 282.227 654.297 282.234 652.797C282.227 651.289 280.68 650.328 278.5 650.328C276.305 650.328 274.781 651.289 274.781 652.797ZM276.656 659.344H280.375V656.234C279.805 656.367 279.172 656.438 278.5 656.438C277.844 656.438 277.219 656.367 276.656 656.234V659.344ZM287.547 661.109C286.938 661.102 286.43 660.609 286.438 660C286.43 659.391 286.938 658.891 287.547 658.891C288.148 658.891 288.648 659.391 288.656 660C288.648 660.609 288.148 661.102 287.547 661.109Z" fill="white"/>
<path d="M148.812 347.391V348.172C148.797 349.109 148.797 350.5 148.453 352.312L146.984 352.172C147.289 350.625 147.336 349.492 147.352 348.609H141.75V347.391H148.812ZM140.906 353.516C141.766 353.516 142.742 353.508 143.766 353.484V350.531H145.234V353.438C146.734 353.375 148.281 353.266 149.688 353.062L149.781 354.141C146.859 354.656 143.516 354.711 141.047 354.719L140.906 353.516ZM143.031 360.031V355.891H144.516V358.828H152.547V360.031H143.031ZM150.578 356.844V346.328H152.094V350.781H154.016V352.031H152.094V356.844H150.578ZM166.453 346.344V354.266H164.969V346.344H166.453ZM154.906 352.781C157.094 352.047 158.414 350.188 158.422 348.234V346.875H159.938V348.234C159.93 350.125 161.281 351.828 163.406 352.547L162.672 353.688C161.047 353.148 159.82 352.047 159.188 350.609C158.562 352.148 157.32 353.367 155.641 353.953L154.906 352.781ZM157.25 360.156V355.016H166.453V360.156H157.25ZM158.719 358.953H165V356.203H158.719V358.953ZM175.562 354.531V356.156H177.75V354.531H179.125V360.156H174.172V354.531H175.562ZM172.781 350.156C172.773 348.242 174.312 346.922 176.453 346.922C178.297 346.922 179.727 347.961 180.031 349.531H182.766V346.328H184.25V353.75H182.766V350.75H180.039C179.75 352.352 178.312 353.414 176.453 353.406C174.312 353.414 172.773 352.086 172.781 350.156ZM174.203 350.156C174.195 351.367 175.133 352.195 176.453 352.203C177.75 352.195 178.672 351.367 178.672 350.156C178.672 348.961 177.75 348.148 176.453 348.156C175.133 348.148 174.195 348.961 174.203 350.156ZM175.562 359H177.75V357.281H175.562V359ZM179.203 359.141C180.891 358.445 181.719 356.977 181.719 355.578V354.438H183.188V355.578C183.18 357.047 184.008 358.531 185.734 359.141L184.969 360.266C183.703 359.781 182.883 358.867 182.438 357.758C181.977 358.836 181.156 359.766 179.953 360.266L179.203 359.141ZM197.734 350.422V351.609H188.094V346.828H189.562V350.422H197.734ZM186.391 354.562V353.375H199.203V354.562H186.391ZM187.984 360V355.891H189.469V358.781H197.828V360H187.984ZM208.969 348.562C208.961 350.398 210.258 352.109 212.344 352.797L211.547 353.969C210.016 353.43 208.867 352.336 208.258 350.953C207.648 352.523 206.461 353.758 204.828 354.359L204.031 353.172C206.219 352.398 207.484 350.531 207.5 348.438V347.062H208.969V348.562ZM205.922 357.703C205.922 356.062 207.711 355.102 210.625 355.109C213.5 355.102 215.266 356.062 215.266 357.703C215.266 359.359 213.5 360.305 210.625 360.297C207.711 360.305 205.922 359.359 205.922 357.703ZM207.406 357.703C207.398 358.625 208.602 359.125 210.625 359.141C212.633 359.125 213.82 358.625 213.812 357.703C213.82 356.812 212.633 356.281 210.625 356.281C208.602 356.281 207.398 356.812 207.406 357.703ZM213.656 354.781V346.328H215.141V349.844H217.172V351.094H215.141V354.781H213.656ZM230.734 353.031V354.219H225.078V355.719H229.172V360.156H219.5V355.719H223.609V354.219H217.969V353.031H230.734ZM219.141 347.969V346.766H229.531V347.969H227.5V350.641H229.469V351.844H219.203V350.641H221.188V347.969H219.141ZM220.969 358.953H227.734V356.891H220.969V358.953ZM222.656 350.641H226.016V347.969H222.656V350.641ZM244.562 353.641V354.828H231.797V353.641H244.562ZM233.172 349.594C233.164 347.836 235.125 346.789 238.172 346.797C241.203 346.789 243.164 347.836 243.172 349.594C243.164 351.359 241.203 352.43 238.172 352.438C235.125 352.43 233.164 351.359 233.172 349.594ZM233.406 360.031V355.969H234.906V358.828H243.125V360.031H233.406ZM234.703 349.594C234.695 350.633 236.023 351.219 238.172 351.219C240.312 351.219 241.648 350.633 241.641 349.594C241.648 348.594 240.312 347.984 238.172 347.984C236.023 347.984 234.695 348.594 234.703 349.594ZM261.203 355.016V360.156H252.031V355.016H261.203ZM250.359 353.594V347.141H251.828V352.328C253.852 352.32 255.695 352.18 257.688 351.781L257.859 353.031C255.68 353.477 253.703 353.594 251.453 353.594H250.359ZM253.5 358.953H259.75V356.203H253.5V358.953ZM255.875 350.078V348.875H259.719V346.328H261.203V354.375H259.719V350.078H255.875ZM275 346.328V360.328H273.5V346.328H275ZM263.5 356.578C267.219 354.805 269.039 352.281 269.328 349.016H264.172V347.828H270.828C270.828 351.93 269.086 355.477 264.281 357.781L263.5 356.578ZM284.234 347.672V349.625H287.391V346.328H288.859V360.359H287.391V354.672H284.234V356.828H277.734V347.672H284.234ZM279.203 355.641H282.781V348.828H279.203V355.641ZM284.234 353.469H287.391V350.844H284.234V353.469ZM175.586 370.328V384.328H174.18V370.328H175.586ZM163.477 380.281C166.453 378.516 167.875 376.164 168.133 373.281H164.164V372.062H169.602C169.602 372.781 169.547 373.477 169.438 374.156H171.32V370.688H172.727V383.641H171.32V378.875H168.93V377.656H171.32V375.375H169.164C168.484 377.727 166.992 379.773 164.352 381.344L163.477 380.281ZM190.18 377.281V378.5H177.383V377.281H183.023V375.234H184.492V377.281H190.18ZM178.117 374.828C180.797 374.484 183 372.906 183.008 371.141V370.547H184.508V371.141C184.5 372.93 186.695 374.484 189.398 374.828L188.82 376C186.602 375.641 184.641 374.562 183.75 373.016C182.859 374.562 180.898 375.641 178.664 376L178.117 374.828ZM178.805 380.906V379.734H188.586V384.328H187.086V380.906H178.805ZM199.961 371.844C199.953 373.68 201.242 375.297 203.352 375.938L202.586 377.094C201.016 376.578 199.867 375.547 199.258 374.203C198.648 375.742 197.422 376.922 195.742 377.5L195.008 376.312C197.188 375.594 198.484 373.859 198.492 371.844V370.812H199.961V371.844ZM197.07 379.375V378.203H206.117V381.672H198.555V383H206.602V384.188H197.102V380.578H204.648V379.375H197.07ZM204.633 377.609V370.328H206.117V373.281H208.148V374.516H206.117V377.609H204.633ZM216.977 371.688V372.906H215.523V379.617C216.156 379.578 216.781 379.523 217.383 379.453L217.477 380.547C214.648 380.984 211.414 381.031 209.008 381.047L208.852 379.812C209.398 379.812 209.992 379.805 210.617 379.797V372.906H209.258V371.688H216.977ZM212.07 379.773C212.727 379.758 213.398 379.734 214.07 379.703V372.906H212.07V379.773ZM216.773 378.344V377.141H219.148V375.109H216.773V373.891H219.148V370.328H220.617V384.328H219.148V378.344H216.773ZM235.586 381.359V382.594H222.773V381.359H228.414V378.484H224.242V371.281H225.727V373.688H232.602V371.281H234.07V378.484H229.883V381.359H235.586ZM225.727 377.281H232.602V374.891H225.727V377.281ZM240.867 374.156C240.867 376.391 241.805 378.773 243.68 379.922L242.852 381.062C241.539 380.273 240.656 378.875 240.172 377.258C239.664 379.031 238.695 380.547 237.336 381.375L236.414 380.266C238.391 379.078 239.438 376.602 239.43 374.219V371.609H240.867V374.156ZM242.164 376.484V375.25H244.336V370.594H245.742V383.641H244.336V376.484H242.164ZM247.227 384.328V370.328H248.648V384.328H247.227ZM263.242 381.344V382.578H250.43V381.344H253.492V377.688C252.344 377.055 251.641 376.055 251.648 374.797C251.641 372.594 253.805 371.148 256.805 371.141C259.812 371.148 261.977 372.594 261.977 374.797C261.977 376.031 261.305 377.023 260.18 377.656V381.344H263.242ZM253.086 374.797C253.086 376.297 254.609 377.273 256.805 377.281C258.984 377.273 260.531 376.297 260.539 374.797C260.531 373.289 258.984 372.328 256.805 372.328C254.609 372.328 253.086 373.289 253.086 374.797ZM254.961 381.344H258.68V378.234C258.109 378.367 257.477 378.438 256.805 378.438C256.148 378.438 255.523 378.367 254.961 378.234V381.344ZM265.852 383.109C265.242 383.102 264.734 382.609 264.742 382C264.734 381.391 265.242 380.891 265.852 380.891C266.453 380.891 266.953 381.391 266.961 382C266.953 382.609 266.453 383.102 265.852 383.109Z" fill="white"/>
<circle cx="274.739" cy="285.139" r="13.113" stroke="#FE0A58" stroke-width="4"/>
<path d="M279.514 313.127L287.409 314.604L273.476 290.472C272.813 289.323 272.633 287.958 272.977 286.677C273.32 285.396 274.158 284.303 275.307 283.64C276.456 282.977 277.821 282.797 279.102 283.14C280.383 283.484 281.476 284.322 282.139 285.471L289.641 298.465L297.72 295.378C302.907 293.337 305.5 292.318 307.761 292.353C311.5 292.415 314.954 293.751 317.06 297.399C318.526 299.938 318.882 302.007 320.001 307.466C320.709 310.932 321.064 312.661 320.938 314.268C320.732 316.912 319.612 319.401 317.771 321.311C316.652 322.471 315.123 323.354 312.059 325.123L309.46 326.624C305.391 328.973 303.354 330.149 301.108 330.449C300.706 330.502 300.301 330.534 299.896 330.545C297.633 330.604 295.437 329.766 291.045 328.088L276.824 322.656C275.67 322.208 274.725 321.347 274.172 320.24C273.619 319.133 273.499 317.859 273.835 316.668C274.171 315.477 274.94 314.454 275.99 313.799C277.04 313.144 278.296 312.905 279.514 313.127Z" fill="#020202" stroke="white" stroke-width="4.25" stroke-linecap="round" stroke-linejoin="round"/>
<path d="M131.099 283.725C130.318 284.506 130.318 285.772 131.099 286.553L143.827 299.281C144.608 300.062 145.874 300.062 146.655 299.281C147.436 298.5 147.436 297.234 146.655 296.453L135.341 285.139L146.655 273.825C147.436 273.044 147.436 271.778 146.655 270.997C145.874 270.216 144.608 270.216 143.827 270.997L131.099 283.725ZM261.626 285.139V283.139H132.513V285.139V287.139H261.626V285.139Z" fill="url(#paint1_linear_0_1)"/>
<path d="M134.026 272.026L121.417 285.139L134.026 298.252" stroke="#FF2395" stroke-opacity="0.5" stroke-width="4" stroke-linecap="round"/>
<path d="M122.93 272.026L110.321 285.139L122.93 298.252" stroke="#FF2395" stroke-opacity="0.25" stroke-width="4" stroke-linecap="round"/>
<path d="M360.267 712.717C362.034 711.165 362.207 708.475 360.655 706.709L360.033 706L359.78 707.414C360.914 708.704 360.801 710.722 359.511 711.856L356.28 715.914L354.433 717.844L360.267 712.717Z" fill="white"/>
<path d="M350 702.163L345.896 701.304C343.904 700.887 341.952 702.164 341.535 704.156L339.755 712.664C339.338 714.656 340.615 716.609 342.606 717.025L348.26 718.208C349.613 718.491 350.94 717.624 351.223 716.271" stroke="white" stroke-width="1.14611"/>
<path d="M351.223 716.271L353.245 706.606C353.662 704.615 352.385 702.662 350.394 702.245L350 702.163" stroke="white" stroke-width="1.14611"/>
<rect x="-0.764074" y="0.764074" width="9.93296" height="15.2815" rx="2.92023" transform="matrix(-1 0 0 1 348.396 701.211)" fill="black" stroke="white" stroke-width="1.52815"/>
<path d="M346.258 698.764C346.258 696.472 349.492 692.976 354.663 695.326C359.833 697.676 357.861 700.737 357.35 702.01" stroke="white" stroke-width="1.52815"/>
<circle cx="350" cy="708" r="19.5435" stroke="white" stroke-width="0.913043"/>
<path d="M355.514 700.754L357.114 702.996L359.369 701.778" stroke="white" stroke-width="1.52815" stroke-linecap="round"/>
<path d="M353.504 702.921C353.967 702.967 354.424 703.157 354.833 703.5L356.903 705.236C358.183 706.311 358.497 708.487 357.604 710.097L354.166 716.295C353.576 717.358 352.608 717.908 351.649 717.85C352.304 717.287 352.811 716.445 353.034 715.421L354.78 707.398C355.159 705.655 354.608 703.894 353.504 702.921Z" fill="white"/>
<defs>
<linearGradient id="paint0_linear_0_1" x1="132.513" y1="284.639" x2="261.626" y2="284.639" gradientUnits="userSpaceOnUse">
<stop stop-color="#FF2499"/>
<stop offset="1" stop-color="#FE0A58"/>
</linearGradient>
<linearGradient id="paint1_linear_0_1" x1="132.513" y1="284.639" x2="261.626" y2="284.639" gradientUnits="userSpaceOnUse">
<stop stop-color="#FF2499"/>
<stop offset="1" stop-color="#FE0A58"/>
</linearGradient>
</defs>
</svg>
